<svg width="24" height="24" viewBox="0 0 24 24" fill="none" xmlns="http://www.w3.org/2000/svg">
<path d="M21.8909 2.11876C21.6965 1.92218 21.465 1.76624 21.2098 1.66001C20.9546 1.55378 20.6809 1.49939 20.4045 1.50001H14.6421C14.2641 1.50071 13.9016 1.65045 13.6334 1.91672L2.11383 13.4339C1.72076 13.8278 1.5 14.3615 1.5 14.918C1.5 15.4744 1.72076 16.0082 2.11383 16.402L7.5982 21.8864C7.99218 22.2797 8.52609 22.5005 9.08273 22.5005C9.63938 22.5005 10.1733 22.2797 10.5673 21.8864L22.0821 10.3739C22.3489 10.1061 22.4992 9.74369 22.5002 9.36563V3.60001C22.5019 3.32503 22.4489 3.05247 22.3443 2.79817C22.2397 2.54388 22.0856 2.31292 21.8909 2.11876ZM18.0002 7.5C17.7036 7.5 17.4136 7.41203 17.1669 7.24721C16.9202 7.08239 16.7279 6.84812 16.6144 6.57403C16.5009 6.29994 16.4712 5.99834 16.5291 5.70737C16.5869 5.4164 16.7298 5.14912 16.9396 4.93934C17.1494 4.72957 17.4166 4.5867 17.7076 4.52883C17.9986 4.47095 18.3002 4.50065 18.5743 4.61419C18.8483 4.72772 19.0826 4.91998 19.2474 5.16665C19.4123 5.41332 19.5002 5.70333 19.5002 6C19.5002 6.39783 19.3422 6.77936 19.0609 7.06067C18.7796 7.34197 18.3981 7.5 18.0002 7.5Z" fill="#A6A1B3"/>
</svg>
