<svg width="20" height="20" viewBox="0 0 20 20" fill="none" xmlns="http://www.w3.org/2000/svg">
<path d="M9.06675 18.2833L13.6751 13.6667C13.9834 13.3583 14.1584 12.9333 14.1584 12.4917V4.16667C14.1584 3.25 13.4084 2.5 12.4917 2.5H5.00008C4.33341 2.5 3.73341 2.9 3.47508 3.50833L0.758412 9.85C0.050079 11.5 1.25841 13.3333 3.05008 13.3333H7.75841L6.96675 17.15C6.88341 17.5667 7.00841 17.9917 7.30841 18.2917C7.80008 18.775 8.58341 18.775 9.06675 18.2833ZM17.5001 2.5C16.5834 2.5 15.8334 3.25 15.8334 4.16667V10.8333C15.8334 11.75 16.5834 12.5 17.5001 12.5C18.4167 12.5 19.1667 11.75 19.1667 10.8333V4.16667C19.1667 3.25 18.4167 2.5 17.5001 2.5Z" fill="#292433"/>
</svg>
