<svg width="1749" height="937" viewBox="0 0 1749 937" fill="none" xmlns="http://www.w3.org/2000/svg">
<path d="M286.8 682.298C253.6 690.098 220.4 689.398 187.2 688.898C180.1 688.798 174.5 686.298 169.1 681.098C162.1 674.298 158.1 667.198 157.5 657.398C155.8 631.698 152.7 605.998 151.4 580.198C148.6 528.098 146.5 475.998 144.4 423.898C143.9 411.898 144.1 399.898 144.2 387.898C144.2 384.498 143.5 382.898 139.9 382.098C107.4 374.298 79.4004 358.598 55.8004 334.598C40.0004 318.598 25.0004 301.998 15.2004 281.298C7.00039 263.898 1.70039 245.698 1.20039 226.498C0.600391 205.198 0.20039 183.798 1.60039 162.498C4.00039 127.198 18.1004 96.5984 43.0004 71.1984C58.2004 55.6984 73.4004 40.2984 92.3004 29.1984C115.7 15.3984 141.1 8.19842 167.7 4.49842C201.9 -0.401576 236.1 -1.60157 270 6.79843C298.2 13.7984 323.1 26.7984 343.7 47.7984C360.9 65.3984 370.7 85.9984 369.8 110.998C369.6 118.198 369.8 125.298 369.2 132.498C368.8 136.698 371.6 137.898 374.2 138.798C375.6 139.298 378.3 138.398 379.4 137.198C403.4 112.898 432.6 100.498 466.4 96.7984C513.1 91.6984 559.8 90.8984 606.6 93.8984C616.8 94.5984 626 91.7984 635.6 89.8984C671.1 82.9984 707 81.4984 743.1 82.9984C749.6 83.2984 753.5 87.1984 756.6 91.9984C758.8 95.2984 761 95.7984 764.9 94.9984C782.8 91.1984 800.8 87.6984 819.3 88.0984C838.5 88.4984 857 91.7984 873.7 102.298C875.1 103.198 877.8 102.998 879.6 102.398C907.5 92.4984 935.9 86.1984 965.7 88.0984C980.2 88.9984 994.5 91.7984 1007.9 97.4984C1024.6 104.598 1036.7 116.898 1045 132.998C1045.5 133.998 1046 134.998 1046.6 135.998C1052.7 129.698 1058.3 123.398 1064.5 117.698C1082.1 101.298 1103.7 93.5984 1127.1 90.1984C1154.3 86.2984 1181.2 87.8984 1208.1 93.0984C1209.9 93.3984 1212.7 93.0984 1213.8 91.8984C1235.9 68.9984 1263.8 56.7984 1294 49.3984C1328.7 40.8984 1363.8 37.2984 1399.6 40.8984C1433.1 44.2984 1463.5 56.3984 1492 73.6984C1493.4 74.5984 1494.8 75.2984 1495.6 75.7984C1502 66.6984 1507.3 57.0984 1514.5 49.1984C1543.6 17.3984 1579.5 10.5984 1619.4 23.6984C1654.2 35.0984 1680.2 58.2984 1700.5 88.0984C1725.9 125.298 1738.7 166.398 1736.1 211.598C1734.3 243.298 1724.4 271.998 1701.5 295.098C1698.1 298.498 1694.1 301.298 1690.5 304.598C1689.4 305.598 1688 307.698 1688.4 308.798C1688.9 310.198 1690.9 311.898 1692.4 312.098C1722.1 317.098 1742.3 336.398 1747.6 365.698C1751 384.498 1746.7 401.798 1735.5 417.298C1733.4 420.198 1733.3 422.398 1734.7 425.398C1736.7 429.598 1738.1 434.098 1740 438.298C1742.8 444.398 1741.8 449.998 1738.3 455.398C1731.1 466.698 1713.1 473.898 1700 470.698C1692.5 468.898 1686.6 464.898 1685.5 456.798C1684.3 448.098 1680.5 443.598 1671.2 444.098C1667.9 444.298 1664.4 442.598 1661.1 441.498C1657.8 440.398 1654.6 438.898 1650.5 437.198C1640.4 495.398 1611.2 541.898 1565.8 575.998C1567.1 582.998 1568.7 588.498 1569 594.098C1569.9 612.198 1570.9 630.398 1570.7 648.498C1570.3 701.798 1569.8 755.098 1568.7 808.498C1568.2 833.998 1566.3 859.398 1564.9 884.898C1564.6 890.498 1563 896.198 1563.5 901.798C1564.7 915.598 1555.4 923.098 1546.6 930.398C1543.5 932.998 1538.3 933.698 1533.9 934.198C1509.7 936.798 1485.4 936.698 1461.1 934.498C1454 933.898 1447.7 931.898 1443.4 925.898C1441.6 923.398 1439.4 923.198 1436.5 924.098C1432.6 925.398 1428.4 926.498 1424.3 926.598C1399.9 927.198 1375.1 930.898 1351.9 920.098C1339.6 914.398 1328.2 906.698 1316.4 899.798C1315 898.998 1313.7 897.898 1311.6 896.398C1311.1 901.998 1311 906.898 1310.2 911.698C1309.8 914.098 1308.3 916.498 1307 918.598C1305.9 920.198 1304.1 921.298 1302.9 922.898C1296.9 930.898 1288.7 934.198 1279.1 934.098C1254.8 933.998 1230.4 934.798 1206.3 932.798C1195.9 931.898 1185.7 925.798 1176.1 920.798C1171.2 918.298 1168.4 918.298 1165.5 922.498C1158.9 931.998 1149.1 934.198 1138.4 934.398C1135.7 934.398 1133.1 934.698 1130.4 934.698C1108.6 934.298 1086.8 933.898 1065 933.198C1062.3 933.098 1059.6 931.598 1057.1 930.398C1053.4 928.598 1049.8 926.498 1045.6 924.298C1039 934.598 1028.3 934.098 1018.3 934.298C998.5 934.698 978.7 934.498 958.8 934.298C954.7 934.298 950.5 933.398 946.4 932.998C941 932.498 938.1 928.398 934.8 924.998C932.5 922.598 930.5 922.498 927.4 923.098C903.9 927.798 880.4 932.498 856.2 930.598C829 928.398 808 915.498 791 894.998C787.9 891.298 785 887.498 781.8 883.498C775.1 889.798 769 896.098 762.3 901.798C745.1 916.398 725 924.298 702.7 926.198C679.9 928.098 657 929.398 634.4 925.198C595.8 917.998 563.3 899.598 538.4 868.498C526.9 854.098 517 838.698 509.1 822.198C507.6 818.998 505.7 817.998 502.2 817.998C486.4 818.198 470.5 818.198 454.7 818.198C453.1 818.198 451.5 818.298 449.4 818.398C449.4 829.398 449.7 839.998 449.3 850.598C448.7 865.498 446.4 879.998 441.5 894.198C437.5 905.598 429.9 914.398 420.4 920.698C414.7 924.498 406.5 925.598 399.4 925.898C374 926.898 348.5 926.898 323 927.298C318.4 927.398 315.1 925.098 311.5 922.298C301.9 914.698 297.9 905.198 297.3 893.098C295.6 861.698 292.7 830.298 291.1 798.898C289.3 761.298 288.4 723.598 287.2 685.998C287.1 684.798 286.9 683.798 286.8 682.298Z" fill="#3D63CC"/>
<path d="M286.8 682.298C253.6 690.098 220.4 689.398 187.2 688.898C180.1 688.798 174.5 686.298 169.1 681.098C162.1 674.298 158.1 667.198 157.5 657.398C155.8 631.698 152.7 605.998 151.4 580.198C148.6 528.098 146.5 475.998 144.4 423.898C143.9 411.898 144.1 399.898 144.2 387.898C144.2 384.498 143.5 382.898 139.9 382.098C107.4 374.298 79.4004 358.598 55.8004 334.598C40.0004 318.598 25.0004 301.998 15.2004 281.298C7.00039 263.898 1.70039 245.698 1.20039 226.498C0.600391 205.198 0.20039 183.798 1.60039 162.498C4.00039 127.198 18.1004 96.5984 43.0004 71.1984C58.2004 55.6984 73.4004 40.2984 92.3004 29.1984C115.7 15.3984 141.1 8.19842 167.7 4.49842C201.9 -0.401576 236.1 -1.60157 270 6.79843C298.2 13.7984 323.1 26.7984 343.7 47.7984C360.9 65.3984 370.7 85.9984 369.8 110.998C369.6 118.198 369.8 125.298 369.2 132.498C368.8 136.698 371.6 137.898 374.2 138.798C375.6 139.298 378.3 138.398 379.4 137.198C403.4 112.898 432.6 100.498 466.4 96.7984C513.1 91.6984 559.8 90.8984 606.6 93.8984C616.8 94.5984 626 91.7984 635.6 89.8984C671.1 82.9984 707 81.4984 743.1 82.9984C749.6 83.2984 753.5 87.1984 756.6 91.9984C758.8 95.2984 761 95.7984 764.9 94.9984C782.8 91.1984 800.8 87.6984 819.3 88.0984C838.5 88.4984 857 91.7984 873.7 102.298C875.1 103.198 877.8 102.998 879.6 102.398C907.5 92.4984 935.9 86.1984 965.7 88.0984C980.2 88.9984 994.5 91.7984 1007.9 97.4984C1024.6 104.598 1036.7 116.898 1045 132.998C1045.5 133.998 1046 134.998 1046.6 135.998C1052.7 129.698 1058.3 123.398 1064.5 117.698C1082.1 101.298 1103.7 93.5984 1127.1 90.1984C1154.3 86.2984 1181.2 87.8984 1208.1 93.0984C1209.9 93.3984 1212.7 93.0984 1213.8 91.8984C1235.9 68.9984 1263.8 56.7984 1294 49.3984C1328.7 40.8984 1363.8 37.2984 1399.6 40.8984C1433.1 44.2984 1463.5 56.3984 1492 73.6984C1493.4 74.5984 1494.8 75.2984 1495.6 75.7984C1502 66.6984 1507.3 57.0984 1514.5 49.1984C1543.6 17.3984 1579.5 10.5984 1619.4 23.6984C1654.2 35.0984 1680.2 58.2984 1700.5 88.0984C1725.9 125.298 1738.7 166.398 1736.1 211.598C1734.3 243.298 1724.4 271.998 1701.5 295.098C1698.1 298.498 1694.1 301.298 1690.5 304.598C1689.4 305.598 1688 307.698 1688.4 308.798C1688.9 310.198 1690.9 311.898 1692.4 312.098C1722.1 317.098 1742.3 336.398 1747.6 365.698C1751 384.498 1746.7 401.798 1735.5 417.298C1733.4 420.198 1733.3 422.398 1734.7 425.398C1736.7 429.598 1738.1 434.098 1740 438.298C1742.8 444.398 1741.8 449.998 1738.3 455.398C1731.1 466.698 1713.1 473.898 1700 470.698C1692.5 468.898 1686.6 464.898 1685.5 456.798C1684.3 448.098 1680.5 443.598 1671.2 444.098C1667.9 444.298 1664.4 442.598 1661.1 441.498C1657.8 440.398 1654.6 438.898 1650.5 437.198C1640.4 495.398 1611.2 541.898 1565.8 575.998C1567.1 582.998 1568.7 588.498 1569 594.098C1569.9 612.198 1570.9 630.398 1570.7 648.498C1570.3 701.798 1569.8 755.098 1568.7 808.498C1568.2 833.998 1566.3 859.398 1564.9 884.898C1564.6 890.498 1563 896.198 1563.5 901.798C1564.7 915.598 1555.4 923.098 1546.6 930.398C1543.5 932.998 1538.3 933.698 1533.9 934.198C1509.7 936.798 1485.4 936.698 1461.1 934.498C1454 933.898 1447.7 931.898 1443.4 925.898C1441.6 923.398 1439.4 923.198 1436.5 924.098C1432.6 925.398 1428.4 926.498 1424.3 926.598C1399.9 927.198 1375.1 930.898 1351.9 920.098C1339.6 914.398 1328.2 906.698 1316.4 899.798C1315 898.998 1313.7 897.898 1311.6 896.398C1311.1 901.998 1311 906.898 1310.2 911.698C1309.8 914.098 1308.3 916.498 1307 918.598C1305.9 920.198 1304.1 921.298 1302.9 922.898C1296.9 930.898 1288.7 934.198 1279.1 934.098C1254.8 933.998 1230.4 934.798 1206.3 932.798C1195.9 931.898 1185.7 925.798 1176.1 920.798C1171.2 918.298 1168.4 918.298 1165.5 922.498C1158.9 931.998 1149.1 934.198 1138.4 934.398C1135.7 934.398 1133.1 934.698 1130.4 934.698C1108.6 934.298 1086.8 933.898 1065 933.198C1062.3 933.098 1059.6 931.598 1057.1 930.398C1053.4 928.598 1049.8 926.498 1045.6 924.298C1039 934.598 1028.3 934.098 1018.3 934.298C998.5 934.698 978.7 934.498 958.8 934.298C954.7 934.298 950.5 933.398 946.4 932.998C941 932.498 938.1 928.398 934.8 924.998C932.5 922.598 930.5 922.498 927.4 923.098C903.9 927.798 880.4 932.498 856.2 930.598C829 928.398 808 915.498 791 894.998C787.9 891.298 785 887.498 781.8 883.498C775.1 889.798 769 896.098 762.3 901.798C745.1 916.398 725 924.298 702.7 926.198C679.9 928.098 657 929.398 634.4 925.198C595.8 917.998 563.3 899.598 538.4 868.498C526.9 854.098 517 838.698 509.1 822.198C507.6 818.998 505.7 817.998 502.2 817.998C486.4 818.198 470.5 818.198 454.7 818.198C453.1 818.198 451.5 818.298 449.4 818.398C449.4 829.398 449.7 839.998 449.3 850.598C448.7 865.498 446.4 879.998 441.5 894.198C437.5 905.598 429.9 914.398 420.4 920.698C414.7 924.498 406.5 925.598 399.4 925.898C374 926.898 348.5 926.898 323 927.298C318.4 927.398 315.1 925.098 311.5 922.298C301.9 914.698 297.9 905.198 297.3 893.098C295.6 861.698 292.7 830.298 291.1 798.898C289.3 761.298 288.4 723.598 287.2 685.998C287.1 684.798 286.9 683.798 286.8 682.298Z" fill="url(#paint0_linear_5088_6372)"/>
<path d="M304.9 492.7C304.9 496.1 304.9 498.1 304.9 500.1C304.9 539.3 305.1 578.4 304.6 617.5C304.4 634.7 303 635.4 286 638.2C264.4 641.7 242.7 644.1 220.8 642.2C211.6 641.4 211 640.8 210.1 631.7C207.6 604.3 204.6 577 203.1 549.5C200.4 502.4 198.2 455.3 196.7 408.2C195.9 384.1 196.8 359.9 196.9 335.7C196.9 335.4 196.9 335 196.9 334.7C197.6 323.4 198.9 321.9 210.2 321C233.9 319 257.5 320.3 281 323.3C289.5 324.4 296.1 328.1 301.5 334.5C318.9 355.1 336.4 375.6 353.5 396.5C366.7 412.6 379.2 429.2 392.1 445.6C392.5 446.1 393 446.5 394.4 448C393.8 441.3 393.3 435.8 392.9 430.3C390.8 403.2 388.5 376.2 386.6 349.1C386.1 342.3 386.6 335.5 386.6 328.6C386.6 323.5 389 320.6 394.2 319.9C404.7 318.3 415.2 316 425.8 315C444.4 313.2 463 311.9 481.6 310.9C491.2 310.4 492.5 311.8 492.4 321.3C492 354 491.8 386.6 490.6 419.2C488.7 470.2 486 521.1 487.2 572.1C487.2 572.4 487.1 572.7 486.9 573.8C484.9 574.1 482.7 574.5 480.5 574.7C447.6 576.7 414.6 578.5 381.7 580.7C376.3 581.1 372.9 579.8 369.8 575C353.8 549.5 333.1 527.6 314.5 504.1C311.6 500.8 308.7 497.3 304.9 492.7Z" fill="black"/>
<path d="M747.1 133.901C769.7 113.701 795.7 104.801 825 105.401C840.5 105.801 855.4 108.801 868.3 118.501C875.7 124.101 880.9 131.201 885 139.301C885.6 140.401 886.1 141.601 886.3 142.101C891.6 137.301 896.5 132.101 902.1 127.701C930.1 106.001 961.5 100.001 995.5 109.701C1016.1 115.601 1030 129.601 1034.2 150.901C1037.3 166.801 1039.4 183.201 1039.8 199.401C1040.8 242.701 1041.2 286.001 1040.7 329.301C1040.5 346.901 1040.9 344.801 1025.5 343.901C1003.6 342.601 981.7 339.801 959.8 337.901C954.9 337.501 953.1 335.101 953.1 330.501C952.9 316.301 952.7 302.201 952.3 288.001C951.7 265.201 951.7 242.301 949.9 219.601C949 208.501 945.1 197.601 941.8 186.901C939.7 180.201 934.2 177.401 927 177.501C913 177.601 902 183.801 892.7 193.401C891.8 194.401 891.4 196.401 891.6 197.901C895.4 238.001 895.4 278.101 894.3 318.301C894.1 324.301 893.4 330.301 893.1 336.301C892.9 341.501 890.6 343.701 885.2 343.201C868.8 341.901 852.3 340.901 835.9 339.601C828.1 339.001 820.4 337.501 812.6 336.901C807.6 336.501 805.9 334.001 805.9 329.501C805.8 322.701 805.7 315.801 805.6 309.001C805.3 283.701 805.5 258.301 804.3 233.001C803.7 220.501 801.8 207.701 798.5 195.601C793.4 176.901 787 173.801 767.3 179.401C765.4 179.901 763.6 180.901 761.8 181.801C752.8 186.001 748.7 191.801 748.9 203.001C749.8 239.601 749.1 276.301 748.8 313.001C748.8 318.001 748.1 323.001 747.8 328.001C747.3 335.501 746.4 336.701 738.8 336.701C729 336.701 719.1 336.501 709.3 335.601C695.9 334.501 682.5 332.801 669.1 331.101C660.8 330.001 659.8 329.201 658.8 320.901C657 305.201 655.2 289.401 654.3 273.601C651.7 223.801 650.1 174.001 652 124.201C652.6 106.601 652.4 105.901 669.8 103.601C690.3 101.001 710.9 99.5007 731.5 98.2007C741.9 97.5007 743.1 99.1007 744.4 109.501C745.3 117.501 746.1 125.401 747.1 133.901Z" fill="black"/>
<path d="M274.1 236.3C263.7 236.3 253.5 236.4 243.4 236.3C234.7 236.1 226.1 235.5 217.4 235.3C212.7 235.2 210.3 232.9 210 228.4C208.8 212.5 207.3 196.5 206.5 180.6C206 171.1 206.4 161.6 206.9 152.1C207.2 145 207.9 144 214.8 144C231.3 143.9 247.8 143.6 264.2 144.7C292.4 146.7 320.6 149.7 348.8 152.3C352.6 152.7 356.3 153.7 360.1 154.1C364.7 154.7 366.6 157.1 367.1 161.6C370.1 193.3 370.8 225.1 368.1 256.9C366.3 277.5 356.6 294.3 339.5 306.3C331.7 311.7 323.5 316.6 315.6 321.7C313.2 323.3 311.1 323.4 309.1 320.9C302.1 312.5 292.6 309.8 282.2 308.7C256.1 306 230 305.5 203.8 307.1C190.5 307.9 184.8 313.5 183.3 326.9C182.9 330.7 182.9 334.5 182.6 339.4C173.1 336.4 163.9 334.1 155.2 330.7C106.1 311.3 71.9001 277.2 58.5001 225.8C47.2001 182.7 49.7001 139.8 72.5001 100.3C96.8001 58.1997 134.1 32.5997 181.4 22.5997C218.1 14.8997 254.7 15.8997 289.9 30.5997C309 38.5997 326.3 49.2997 339.1 66.1997C353.8 85.5997 357.9 107.3 354.2 130.9C353.4 135.7 351 137.9 346.1 137.5C329.1 136.3 312.2 135.4 295.2 134.1C284.2 133.3 273.3 131.8 262.4 130.8C258.3 130.4 256 129 255.6 124.6C254.8 116.3 249.7 111.3 242.6 107.5C226.4 98.8997 210.1 101.1 194.5 108.3C167.9 120.5 153 141.8 150 170.7C146.6 203.6 157.8 230.4 186.2 248.7C202.9 259.4 221.6 260.5 240.7 258.3C250.5 257.1 260 254.5 268.5 249.3C275 245.5 275.4 244.7 274.1 236.3Z" fill="black"/>
<path d="M433.1 770.1C433.1 772.4 433.1 774.2 433.1 776C432.8 802.3 432.5 828.6 432.1 854.9C432.1 857.4 431.8 859.9 431.5 862.4C429.9 874.3 430 874.6 418.3 876.5C398.5 879.7 378.6 881.4 358.6 879.3C351.1 878.5 350 877.8 349.4 870.3C347.3 846.7 344.8 823.2 343.6 799.6C341.5 759.9 339.7 720.1 338.6 680.3C337.9 656.7 338.5 633 338.8 609.4C339 598.7 339.8 598.1 350.7 597.1C369.9 595.4 389.2 593.2 408.5 592.4C458.4 590.3 508.4 588.9 558.3 587.4C564.1 587.2 569.9 588.1 575.7 588.6C579.2 588.9 581 590.9 581.1 594.5C581.9 616.1 579.7 637.4 574.9 658.4C574.1 662 572.1 664.2 568.1 664.5C559 665.1 549.8 666.3 540.7 666.4C506.6 666.9 472.4 667.1 438.3 667.4C436.4 667.4 434.4 667.4 432.1 667.4C432.1 677.6 432.1 687.1 432.1 697.5C434.1 697.5 436 697.5 438 697.5C472.3 696.7 506.6 695.8 540.9 695C547.4 694.9 553.9 695.1 560.4 695.1C564.7 695.1 566.8 697.1 566.9 701.4C567.5 721.6 565.7 741.6 561.6 761.5C560.6 766.2 558.3 768.8 553.2 769C543.9 769.4 534.6 770.5 525.3 770.6C496.5 770.7 467.7 770.4 438.8 770.2C437.2 770.1 435.6 770.1 433.1 770.1Z" fill="black"/>
<path d="M1470.2 689.202C1470.2 685.902 1470.2 684.102 1470.2 682.402C1470.9 655.302 1471.6 628.102 1472.5 601.002C1472.8 592.102 1473.6 591.302 1482.5 589.502C1503.5 585.202 1524.7 583.802 1546.1 585.002C1551.3 585.302 1553.6 587.902 1553.9 592.802C1554.7 604.302 1556.1 615.702 1556 627.202C1555.6 687.202 1555.1 747.202 1554.1 807.102C1553.7 830.402 1551.6 853.702 1550.5 877.002C1550.3 881.602 1548.2 884.002 1543.8 884.902C1523.6 889.202 1503.5 889.302 1483.3 885.302C1479.5 884.502 1477.1 882.502 1476.6 878.302C1475.7 870.502 1474.7 862.802 1473.6 854.102C1472 855.602 1470.8 856.602 1469.8 857.702C1439.6 888.802 1391.5 883.502 1365.2 862.202C1346.8 847.302 1335.7 828.002 1331.3 805.002C1325.6 775.602 1326.5 746.602 1338.9 718.802C1356.5 679.402 1398.5 659.202 1438.7 670.302C1450.5 673.402 1460.5 679.502 1470.2 689.202ZM1471.6 773.102C1471.3 773.102 1471 773.102 1470.7 773.102C1470.7 766.402 1470.8 759.802 1470.7 753.102C1470.5 741.802 1469 739.702 1458.1 736.102C1455.7 735.302 1453.3 734.802 1450.8 734.302C1433.8 731.302 1417.1 738.902 1409.9 752.802C1401.6 768.702 1404.3 790.402 1416.2 802.102C1431.5 817.202 1454 815.102 1469.6 803.202C1470.9 802.202 1471.5 799.802 1471.5 798.002C1471.7 789.802 1471.6 781.402 1471.6 773.102Z" fill="black"/>
<path d="M1647.5 323.601C1646.3 324.601 1645.1 325.701 1643.9 326.701C1612.8 351.901 1609.4 395.701 1636.3 425.501C1639.4 428.901 1643.2 431.801 1647.1 434.301C1649.8 436.001 1650.8 437.701 1649.9 440.701C1649 443.701 1648.4 446.801 1647.7 449.901C1630 441.101 1604.4 416.601 1605.9 381.301C1605.2 381.901 1604.7 382.201 1604.4 382.701C1586.3 416.301 1556.8 433.901 1520.7 441.801C1490.1 448.401 1459.9 446.401 1431.2 433.501C1394.8 417.101 1372.1 387.901 1357.9 351.601C1350.8 333.501 1347.2 314.901 1350.8 295.401C1353.7 279.801 1362.4 268.401 1377.7 264.401C1392.2 260.501 1407.3 258.101 1422.3 256.301C1446.1 253.501 1470.1 252.301 1493.4 246.201C1495.2 245.701 1496.9 245.201 1499.3 244.501C1484.2 217.701 1474.3 189.401 1472.3 158.901C1470.3 128.601 1471.1 98.6008 1484.9 69.8008C1488.7 72.0008 1492.3 74.2008 1495.8 76.3008C1493.1 85.7008 1490.1 94.7008 1487.9 103.801C1480.1 136.201 1483.6 168.001 1493.9 199.201C1503.3 227.701 1518.1 253.301 1538.8 275.101C1562.2 299.701 1589.9 316.501 1624.1 320.901C1631.6 321.901 1639.2 321.901 1646.8 322.401C1647.2 322.701 1647.4 323.101 1647.5 323.601Z" fill="black"/>
<path d="M506 331.8C506 324.6 506.1 318.9 506 313.3C505.8 304.2 499.5 297.9 490.5 298.2C468.4 298.9 446.2 299.8 424.1 300.8C420.5 301 418.3 300 416.3 297C397.5 268.6 392.3 237.4 397.3 204.3C401.2 178.2 411.5 155 432 137.5C461.8 111.9 501.1 106 535.1 125.1C535.5 125.3 536 125.4 536.5 125.6C536.7 125.3 537.1 125.1 537.1 124.8C539.5 113.4 541.2 110.8 553.1 110.4C574.9 109.6 596.7 109.9 618.5 110.1C624.2 110.1 627.1 113.3 627.2 119C627.5 132.7 627.9 146.3 627.4 160C625.5 210.1 623.3 260.2 621.1 310.3C620.8 317.1 619.8 323.9 618.8 330.6C617.8 337.2 615.9 339.3 609.4 340.5C591 343.8 572.4 345.2 553.7 343.2C543.7 342.1 541.6 340.2 539.3 330.4C538.6 327.4 537.9 324.3 537.2 321.3C527.1 324.6 517.4 327.9 506 331.8ZM479.4 225.7C481.3 231.8 482.4 238.3 485.1 244C490.6 255.7 501.8 261.9 513.7 261C524.3 260.1 534.6 251.4 538.3 239.6C541.8 228.6 541.3 217.6 537.3 206.8C532.4 193.3 517.5 186.4 503.9 190.9C490.1 195.6 480.6 209.5 479.4 225.7Z" fill="black"/>
<path d="M968.7 854.602C942.5 878.602 912.2 883.202 879.6 876.902C855.7 872.302 838.7 853.302 835.4 829.202C829 782.302 824.6 735.202 822.9 687.902C822.6 680.102 823 672.302 823.1 664.402C823.2 660.302 825 657.902 829.4 657.702C836.9 657.402 844.4 656.402 851.8 656.702C868.1 657.202 884.4 657.902 900.7 659.102C908.4 659.702 909.1 660.702 909.4 668.502C910 681.602 910 694.802 910.3 708.002C910.9 736.002 911.5 764.002 912.2 791.902C912.4 801.202 917.6 808.102 926.4 810.902C940.1 815.202 952.8 812.802 963.9 803.602C965.6 802.202 966.5 799.102 966.5 796.702C966.5 764.202 966.1 731.702 966.1 699.202C966.1 688.102 967.3 676.902 967.8 665.802C968 661.202 970.2 658.602 974.6 658.102C990 656.502 1005.4 654.902 1020.8 653.802C1027.9 653.302 1035.1 654.002 1042.3 654.202C1046.7 654.302 1048.9 656.702 1049.3 661.002C1049.9 669.802 1051.3 678.602 1051.2 687.402C1050.5 740.402 1049.5 793.302 1048.4 846.302C1048.2 856.602 1046.8 866.902 1046.1 877.202C1045.8 881.502 1044 883.802 1039.6 884.602C1019.2 888.002 998.8 887.902 978.4 884.802C974.7 884.202 972.4 882.402 971.9 878.402C970.9 870.702 969.8 863.002 968.7 854.602Z" fill="black"/>
<path d="M1144.5 249.199C1147.9 262.899 1151.7 275.199 1165.5 280.899C1179.2 286.599 1191.6 283.699 1202.7 274.399C1202.8 274.299 1203 274.199 1203.1 274.099C1211.4 262.999 1223.1 261.099 1236 261.199C1249.5 261.299 1263 260.699 1276.5 260.499C1285.6 260.399 1288.8 263.699 1285.7 272.499C1281.8 283.599 1277.7 294.999 1271.2 304.599C1248.3 338.499 1214.4 350.899 1175 350.299C1150.4 349.899 1127.5 342.999 1107.6 328.299C1082.1 309.499 1068.1 283.499 1063.8 252.499C1058.9 217.299 1066.4 184.199 1083.4 153.199C1098.6 125.399 1123 110.799 1153.8 106.199C1170.6 103.699 1187.3 103.799 1203.9 107.899C1236.1 115.999 1256.1 137.099 1267.7 167.299C1276 188.799 1278.3 211.299 1277.6 234.099C1277.4 241.999 1273.6 245.299 1264.9 245.599C1237.6 246.399 1210.3 247.099 1182.9 247.899C1170.4 248.299 1157.9 248.799 1144.5 249.199ZM1146.2 205.099C1158.9 205.099 1171.2 205.499 1183.4 204.999C1192.1 204.599 1195.6 196.799 1191.4 189.099C1187.4 181.799 1178.2 177.399 1169.3 178.499C1157.3 179.899 1149.4 188.699 1146.2 205.099Z" fill="black"/>
<path d="M1168.6 688.101C1177.6 683.201 1186.3 677.401 1195.7 673.701C1215.6 665.901 1236.4 665.101 1257.1 670.401C1282 676.701 1299.4 697.601 1299.8 723.901C1300.6 774.501 1300.1 825.201 1300 875.801C1300 882.701 1298.9 883.801 1292 884.901C1272.9 887.801 1253.8 887.701 1234.7 885.101C1229.5 884.401 1227.1 881.501 1226.8 876.601C1226.1 864.601 1225.1 852.701 1225 840.701C1224.7 816.001 1224.9 791.401 1224.9 766.701C1224.9 765.401 1224.9 764.001 1224.9 762.701C1224.7 738.301 1208.9 732.501 1190.2 734.301C1187.7 734.501 1185.3 735.301 1182.9 736.101C1170.7 740.201 1168.9 743.001 1168.5 755.601C1167.1 793.701 1165.6 831.901 1163.9 870.001C1163.3 883.901 1162.9 885.001 1149 885.601C1132.3 886.401 1115.4 885.901 1098.7 885.201C1090.1 884.801 1089 883.401 1088.4 874.901C1086.7 851.801 1084.5 828.701 1084.1 805.601C1083.4 763.801 1083.8 722.001 1083.9 680.101C1083.9 675.301 1084.7 670.501 1085 665.701C1085.2 661.301 1087.4 658.801 1091.6 658.301C1106.5 656.701 1121.4 655.001 1136.3 654.001C1143.9 653.501 1151.6 654.101 1159.3 654.401C1163.8 654.501 1166.2 656.901 1166.5 661.501C1166.9 670.401 1167.8 679.501 1168.6 688.101Z" fill="black"/>
<path d="M594.9 637.101C594.9 622.101 594.8 608.001 594.9 593.801C595 583.401 591 577.601 580.9 574.901C576.6 573.801 572.1 573.101 567.6 573.001C551.3 572.801 534.9 572.801 518.6 573.001C515.7 573.001 514.2 572.101 512.9 569.501C479.3 498.901 523.9 411.801 600.9 398.001C668.3 385.901 730.1 427.501 744.3 494.401C758.5 561.301 711.3 629.001 643.7 639.101C627.1 641.701 610.7 641.101 594.9 637.101ZM601.9 462.301C628.7 488.601 655 514.301 681.5 540.201C690 519.401 683.8 492.201 667.3 476.001C650.2 459.301 622.6 453.101 601.9 462.301ZM565.2 499.901C556.7 519.601 562.1 547.001 579.9 564.301C597.9 581.801 625.3 586.301 644.4 577.601C617.9 551.501 591.7 525.801 565.2 499.901Z" fill="black"/>
<path d="M692.5 667.301C722.7 667.401 750 675.201 772.9 696.001C816.3 735.501 818 805.301 776.6 846.901C757.5 866.101 734.4 876.201 707.8 878.601C678.4 881.301 649.9 877.901 625.1 860.401C589.1 834.901 574.8 799.501 580.6 756.001C586.3 712.801 623.2 671.801 679.5 667.801C683.8 667.601 688.1 667.501 692.5 667.301ZM728.8 773.501C728.8 771.801 728.9 770.201 728.8 768.501C727.3 753.901 721.4 741.901 707.1 736.501C693.2 731.201 679.4 732.601 668 743.301C657.7 753.001 655.6 765.701 656.8 779.101C659.3 807.301 688.6 822.301 712.5 807.401C725 799.801 728.8 787.401 728.8 773.501Z" fill="black"/>
<path d="M783.901 436.801C783.901 434.301 783.901 432.501 783.901 430.701C783.901 413.401 783.701 396.001 783.901 378.701C784.001 367.701 784.801 366.801 795.301 365.001C817.701 361.301 840.301 359.601 863.001 360.101C871.001 360.301 872.201 361.001 872.301 369.001C872.601 389.601 872.301 410.301 872.301 431.001C872.301 442.401 869.601 440.801 882.201 442.101C889.101 442.801 896.001 444.001 903.001 445.001C906.901 445.601 909.001 447.601 908.801 451.701C908.001 466.301 907.201 480.901 906.201 495.501C905.901 499.901 903.601 502.401 898.901 502.601C890.301 503.101 881.601 504.001 873.001 504.501C869.801 504.701 868.8 505.701 868.6 508.901C867.7 524.001 866.501 539.201 865.501 554.301C864.801 565.001 870.301 571.501 881.001 572.101C886.801 572.401 892.701 572.301 898.501 571.601C903.501 571.001 905.901 573.001 906.201 577.601C907.201 592.201 908.001 606.801 908.801 621.401C909.101 625.901 906.501 628.201 902.401 628.901C896.701 629.901 890.901 631.201 885.201 631.701C866.101 633.301 846.901 634.301 828.301 628.101C806.901 621.101 794.301 604.101 792.801 581.601C791.201 557.501 789.001 533.401 787.201 509.401C787.001 506.401 785.6 506.001 783.1 505.801C773.8 505.401 764.501 504.801 755.201 504.301C751.201 504.101 749.001 502.201 748.301 498.001C745.401 480.701 744.301 463.201 745.801 445.701C746.501 437.301 746.9 437.101 755.1 436.801C764.4 436.601 773.701 436.801 783.901 436.801Z" fill="black"/>
<path d="M1371.8 230.001C1361.7 230.101 1358.4 227.101 1359 218.801C1359.8 206.801 1364.9 196.701 1374.1 188.901C1379.6 184.201 1385.9 183.501 1392.4 186.201C1404.1 191.201 1412.5 199.701 1417.2 211.601C1420.1 218.901 1418.1 223.001 1410.4 224.401C1397 226.701 1383.4 228.301 1371.8 230.001Z" fill="black"/>
<path d="M304.9 492.7C304.9 496.1 304.9 498.1 304.9 500.1C304.9 539.3 305.1 578.4 304.6 617.5C304.4 634.7 303 635.4 286 638.2C264.4 641.7 242.7 644.1 220.8 642.2C211.6 641.4 211 640.8 210.1 631.7C207.6 604.3 204.6 577 203.1 549.5C200.4 502.4 198.2 455.3 196.7 408.2C195.9 384.1 196.8 359.9 196.9 335.7C196.9 335.4 196.9 335 196.9 334.7C197.6 323.4 198.9 321.9 210.2 321C233.9 319 257.5 320.3 281 323.3C289.5 324.4 296.1 328.1 301.5 334.5C318.9 355.1 336.4 375.6 353.5 396.5C366.7 412.6 379.2 429.2 392.1 445.6C392.5 446.1 393 446.5 394.4 448C393.8 441.3 393.3 435.8 392.9 430.3C390.8 403.2 388.5 376.2 386.6 349.1C386.1 342.3 386.6 335.5 386.6 328.6C386.6 323.5 389 320.6 394.2 319.9C404.7 318.3 415.2 316 425.8 315C444.4 313.2 463 311.9 481.6 310.9C491.2 310.4 492.5 311.8 492.4 321.3C492 354 491.8 386.6 490.6 419.2C488.7 470.2 486 521.1 487.2 572.1C487.2 572.4 487.1 572.7 486.9 573.8C484.9 574.1 482.7 574.5 480.5 574.7C447.6 576.7 414.6 578.5 381.7 580.7C376.3 581.1 372.9 579.8 369.8 575C353.8 549.5 333.1 527.6 314.5 504.1C311.6 500.8 308.7 497.3 304.9 492.7Z" fill="white"/>
<path d="M747.1 133.901C769.7 113.701 795.7 104.801 825 105.401C840.5 105.801 855.4 108.801 868.3 118.501C875.7 124.101 880.9 131.201 885 139.301C885.6 140.401 886.1 141.601 886.3 142.101C891.6 137.301 896.5 132.101 902.1 127.701C930.1 106.001 961.5 100.001 995.5 109.701C1016.1 115.601 1030 129.601 1034.2 150.901C1037.3 166.801 1039.4 183.201 1039.8 199.401C1040.8 242.701 1041.2 286.001 1040.7 329.301C1040.5 346.901 1040.9 344.801 1025.5 343.901C1003.6 342.601 981.7 339.801 959.8 337.901C954.9 337.501 953.1 335.101 953.1 330.501C952.9 316.301 952.7 302.201 952.3 288.001C951.7 265.201 951.7 242.301 949.9 219.601C949 208.501 945.1 197.601 941.8 186.901C939.7 180.201 934.2 177.401 927 177.501C913 177.601 902 183.801 892.7 193.401C891.8 194.401 891.4 196.401 891.6 197.901C895.4 238.001 895.4 278.101 894.3 318.301C894.1 324.301 893.4 330.301 893.1 336.301C892.9 341.501 890.6 343.701 885.2 343.201C868.8 341.901 852.3 340.901 835.9 339.601C828.1 339.001 820.4 337.501 812.6 336.901C807.6 336.501 805.9 334.001 805.9 329.501C805.8 322.701 805.7 315.801 805.6 309.001C805.3 283.701 805.5 258.301 804.3 233.001C803.7 220.501 801.8 207.701 798.5 195.601C793.4 176.901 787 173.801 767.3 179.401C765.4 179.901 763.6 180.901 761.8 181.801C752.8 186.001 748.7 191.801 748.9 203.001C749.8 239.601 749.1 276.301 748.8 313.001C748.8 318.001 748.1 323.001 747.8 328.001C747.3 335.501 746.4 336.701 738.8 336.701C729 336.701 719.1 336.501 709.3 335.601C695.9 334.501 682.5 332.801 669.1 331.101C660.8 330.001 659.8 329.201 658.8 320.901C657 305.201 655.2 289.401 654.3 273.601C651.7 223.801 650.1 174.001 652 124.201C652.6 106.601 652.4 105.901 669.8 103.601C690.3 101.001 710.9 99.5007 731.5 98.2007C741.9 97.5007 743.1 99.1007 744.4 109.501C745.3 117.501 746.1 125.401 747.1 133.901Z" fill="white"/>
<path d="M274.1 236.3C263.7 236.3 253.5 236.4 243.4 236.3C234.7 236.1 226.1 235.5 217.4 235.3C212.7 235.2 210.3 232.9 210 228.4C208.8 212.5 207.3 196.5 206.5 180.6C206 171.1 206.4 161.6 206.9 152.1C207.2 145 207.9 144 214.8 144C231.3 143.9 247.8 143.6 264.2 144.7C292.4 146.7 320.6 149.7 348.8 152.3C352.6 152.7 356.3 153.7 360.1 154.1C364.7 154.7 366.6 157.1 367.1 161.6C370.1 193.3 370.8 225.1 368.1 256.9C366.3 277.5 356.6 294.3 339.5 306.3C331.7 311.7 323.5 316.6 315.6 321.7C313.2 323.3 311.1 323.4 309.1 320.9C302.1 312.5 292.6 309.8 282.2 308.7C256.1 306 230 305.5 203.8 307.1C190.5 307.9 184.8 313.5 183.3 326.9C182.9 330.7 182.9 334.5 182.6 339.4C173.1 336.4 163.9 334.1 155.2 330.7C106.1 311.3 71.9001 277.2 58.5001 225.8C47.2001 182.7 49.7001 139.8 72.5001 100.3C96.8001 58.1997 134.1 32.5997 181.4 22.5997C218.1 14.8997 254.7 15.8997 289.9 30.5997C309 38.5997 326.3 49.2997 339.1 66.1997C353.8 85.5997 357.9 107.3 354.2 130.9C353.4 135.7 351 137.9 346.1 137.5C329.1 136.3 312.2 135.4 295.2 134.1C284.2 133.3 273.3 131.8 262.4 130.8C258.3 130.4 256 129 255.6 124.6C254.8 116.3 249.7 111.3 242.6 107.5C226.4 98.8997 210.1 101.1 194.5 108.3C167.9 120.5 153 141.8 150 170.7C146.6 203.6 157.8 230.4 186.2 248.7C202.9 259.4 221.6 260.5 240.7 258.3C250.5 257.1 260 254.5 268.5 249.3C275 245.5 275.4 244.7 274.1 236.3Z" fill="white"/>
<path d="M433.1 770.1C433.1 772.4 433.1 774.2 433.1 776C432.8 802.3 432.5 828.6 432.1 854.9C432.1 857.4 431.8 859.9 431.5 862.4C429.9 874.3 430 874.6 418.3 876.5C398.5 879.7 378.6 881.4 358.6 879.3C351.1 878.5 350 877.8 349.4 870.3C347.3 846.7 344.8 823.2 343.6 799.6C341.5 759.9 339.7 720.1 338.6 680.3C337.9 656.7 338.5 633 338.8 609.4C339 598.7 339.8 598.1 350.7 597.1C369.9 595.4 389.2 593.2 408.5 592.4C458.4 590.3 508.4 588.9 558.3 587.4C564.1 587.2 569.9 588.1 575.7 588.6C579.2 588.9 581 590.9 581.1 594.5C581.9 616.1 579.7 637.4 574.9 658.4C574.1 662 572.1 664.2 568.1 664.5C559 665.1 549.8 666.3 540.7 666.4C506.6 666.9 472.4 667.1 438.3 667.4C436.4 667.4 434.4 667.4 432.1 667.4C432.1 677.6 432.1 687.1 432.1 697.5C434.1 697.5 436 697.5 438 697.5C472.3 696.7 506.6 695.8 540.9 695C547.4 694.9 553.9 695.1 560.4 695.1C564.7 695.1 566.8 697.1 566.9 701.4C567.5 721.6 565.7 741.6 561.6 761.5C560.6 766.2 558.3 768.8 553.2 769C543.9 769.4 534.6 770.5 525.3 770.6C496.5 770.7 467.7 770.4 438.8 770.2C437.2 770.1 435.6 770.1 433.1 770.1Z" fill="white"/>
<path d="M1470.2 689.202C1470.2 685.902 1470.2 684.102 1470.2 682.402C1470.9 655.302 1471.6 628.102 1472.5 601.002C1472.8 592.102 1473.6 591.302 1482.5 589.502C1503.5 585.202 1524.7 583.802 1546.1 585.002C1551.3 585.302 1553.6 587.902 1553.9 592.802C1554.7 604.302 1556.1 615.702 1556 627.202C1555.6 687.202 1555.1 747.202 1554.1 807.102C1553.7 830.402 1551.6 853.702 1550.5 877.002C1550.3 881.602 1548.2 884.002 1543.8 884.902C1523.6 889.202 1503.5 889.302 1483.3 885.302C1479.5 884.502 1477.1 882.502 1476.6 878.302C1475.7 870.502 1474.7 862.802 1473.6 854.102C1472 855.602 1470.8 856.602 1469.8 857.702C1439.6 888.802 1391.5 883.502 1365.2 862.202C1346.8 847.302 1335.7 828.002 1331.3 805.002C1325.6 775.602 1326.5 746.602 1338.9 718.802C1356.5 679.402 1398.5 659.202 1438.7 670.302C1450.5 673.402 1460.5 679.502 1470.2 689.202ZM1471.6 773.102C1471.3 773.102 1471 773.102 1470.7 773.102C1470.7 766.402 1470.8 759.802 1470.7 753.102C1470.5 741.802 1469 739.702 1458.1 736.102C1455.7 735.302 1453.3 734.802 1450.8 734.302C1433.8 731.302 1417.1 738.902 1409.9 752.802C1401.6 768.702 1404.3 790.402 1416.2 802.102C1431.5 817.202 1454 815.102 1469.6 803.202C1470.9 802.202 1471.5 799.802 1471.5 798.002C1471.7 789.802 1471.6 781.402 1471.6 773.102Z" fill="white"/>
<path d="M1647.5 323.601C1646.3 324.601 1645.1 325.701 1643.9 326.701C1612.8 351.901 1609.4 395.701 1636.3 425.501C1639.4 428.901 1643.2 431.801 1647.1 434.301C1649.8 436.001 1650.8 437.701 1649.9 440.701C1649 443.701 1648.4 446.801 1647.7 449.901C1630 441.101 1604.4 416.601 1605.9 381.301C1605.2 381.901 1604.7 382.201 1604.4 382.701C1586.3 416.301 1556.8 433.901 1520.7 441.801C1490.1 448.401 1459.9 446.401 1431.2 433.501C1394.8 417.101 1372.1 387.901 1357.9 351.601C1350.8 333.501 1347.2 314.901 1350.8 295.401C1353.7 279.801 1362.4 268.401 1377.7 264.401C1392.2 260.501 1407.3 258.101 1422.3 256.301C1446.1 253.501 1470.1 252.301 1493.4 246.201C1495.2 245.701 1496.9 245.201 1499.3 244.501C1484.2 217.701 1474.3 189.401 1472.3 158.901C1470.3 128.601 1471.1 98.6008 1484.9 69.8008C1488.7 72.0008 1492.3 74.2008 1495.8 76.3008C1493.1 85.7008 1490.1 94.7008 1487.9 103.801C1480.1 136.201 1483.6 168.001 1493.9 199.201C1503.3 227.701 1518.1 253.301 1538.8 275.101C1562.2 299.701 1589.9 316.501 1624.1 320.901C1631.6 321.901 1639.2 321.901 1646.8 322.401C1647.2 322.701 1647.4 323.101 1647.5 323.601Z" fill="white"/>
<path d="M506 331.8C506 324.6 506.1 318.9 506 313.3C505.8 304.2 499.5 297.9 490.5 298.2C468.4 298.9 446.2 299.8 424.1 300.8C420.5 301 418.3 300 416.3 297C397.5 268.6 392.3 237.4 397.3 204.3C401.2 178.2 411.5 155 432 137.5C461.8 111.9 501.1 106 535.1 125.1C535.5 125.3 536 125.4 536.5 125.6C536.7 125.3 537.1 125.1 537.1 124.8C539.5 113.4 541.2 110.8 553.1 110.4C574.9 109.6 596.7 109.9 618.5 110.1C624.2 110.1 627.1 113.3 627.2 119C627.5 132.7 627.9 146.3 627.4 160C625.5 210.1 623.3 260.2 621.1 310.3C620.8 317.1 619.8 323.9 618.8 330.6C617.8 337.2 615.9 339.3 609.4 340.5C591 343.8 572.4 345.2 553.7 343.2C543.7 342.1 541.6 340.2 539.3 330.4C538.6 327.4 537.9 324.3 537.2 321.3C527.1 324.6 517.4 327.9 506 331.8ZM479.4 225.7C481.3 231.8 482.4 238.3 485.1 244C490.6 255.7 501.8 261.9 513.7 261C524.3 260.1 534.6 251.4 538.3 239.6C541.8 228.6 541.3 217.6 537.3 206.8C532.4 193.3 517.5 186.4 503.9 190.9C490.1 195.6 480.6 209.5 479.4 225.7Z" fill="white"/>
<path d="M968.7 854.602C942.5 878.602 912.2 883.202 879.6 876.902C855.7 872.302 838.7 853.302 835.4 829.202C829 782.302 824.6 735.202 822.9 687.902C822.6 680.102 823 672.302 823.1 664.402C823.2 660.302 825 657.902 829.4 657.702C836.9 657.402 844.4 656.402 851.8 656.702C868.1 657.202 884.4 657.902 900.7 659.102C908.4 659.702 909.1 660.702 909.4 668.502C910 681.602 910 694.802 910.3 708.002C910.9 736.002 911.5 764.002 912.2 791.902C912.4 801.202 917.6 808.102 926.4 810.902C940.1 815.202 952.8 812.802 963.9 803.602C965.6 802.202 966.5 799.102 966.5 796.702C966.5 764.202 966.1 731.702 966.1 699.202C966.1 688.102 967.3 676.902 967.8 665.802C968 661.202 970.2 658.602 974.6 658.102C990 656.502 1005.4 654.902 1020.8 653.802C1027.9 653.302 1035.1 654.002 1042.3 654.202C1046.7 654.302 1048.9 656.702 1049.3 661.002C1049.9 669.802 1051.3 678.602 1051.2 687.402C1050.5 740.402 1049.5 793.302 1048.4 846.302C1048.2 856.602 1046.8 866.902 1046.1 877.202C1045.8 881.502 1044 883.802 1039.6 884.602C1019.2 888.002 998.8 887.902 978.4 884.802C974.7 884.202 972.4 882.402 971.9 878.402C970.9 870.702 969.8 863.002 968.7 854.602Z" fill="white"/>
<path d="M1144.5 249.199C1147.9 262.899 1151.7 275.199 1165.5 280.899C1179.2 286.599 1191.6 283.699 1202.7 274.399C1202.8 274.299 1203 274.199 1203.1 274.099C1211.4 262.999 1223.1 261.099 1236 261.199C1249.5 261.299 1263 260.699 1276.5 260.499C1285.6 260.399 1288.8 263.699 1285.7 272.499C1281.8 283.599 1277.7 294.999 1271.2 304.599C1248.3 338.499 1214.4 350.899 1175 350.299C1150.4 349.899 1127.5 342.999 1107.6 328.299C1082.1 309.499 1068.1 283.499 1063.8 252.499C1058.9 217.299 1066.4 184.199 1083.4 153.199C1098.6 125.399 1123 110.799 1153.8 106.199C1170.6 103.699 1187.3 103.799 1203.9 107.899C1236.1 115.999 1256.1 137.099 1267.7 167.299C1276 188.799 1278.3 211.299 1277.6 234.099C1277.4 241.999 1273.6 245.299 1264.9 245.599C1237.6 246.399 1210.3 247.099 1182.9 247.899C1170.4 248.299 1157.9 248.799 1144.5 249.199ZM1146.2 205.099C1158.9 205.099 1171.2 205.499 1183.4 204.999C1192.1 204.599 1195.6 196.799 1191.4 189.099C1187.4 181.799 1178.2 177.399 1169.3 178.499C1157.3 179.899 1149.4 188.699 1146.2 205.099Z" fill="white"/>
<path d="M1168.6 688.101C1177.6 683.201 1186.3 677.401 1195.7 673.701C1215.6 665.901 1236.4 665.101 1257.1 670.401C1282 676.701 1299.4 697.601 1299.8 723.901C1300.6 774.501 1300.1 825.201 1300 875.801C1300 882.701 1298.9 883.801 1292 884.901C1272.9 887.801 1253.8 887.701 1234.7 885.101C1229.5 884.401 1227.1 881.501 1226.8 876.601C1226.1 864.601 1225.1 852.701 1225 840.701C1224.7 816.001 1224.9 791.401 1224.9 766.701C1224.9 765.401 1224.9 764.001 1224.9 762.701C1224.7 738.301 1208.9 732.501 1190.2 734.301C1187.7 734.501 1185.3 735.301 1182.9 736.101C1170.7 740.201 1168.9 743.001 1168.5 755.601C1167.1 793.701 1165.6 831.901 1163.9 870.001C1163.3 883.901 1162.9 885.001 1149 885.601C1132.3 886.401 1115.4 885.901 1098.7 885.201C1090.1 884.801 1089 883.401 1088.4 874.901C1086.7 851.801 1084.5 828.701 1084.1 805.601C1083.4 763.801 1083.8 722.001 1083.9 680.101C1083.9 675.301 1084.7 670.501 1085 665.701C1085.2 661.301 1087.4 658.801 1091.6 658.301C1106.5 656.701 1121.4 655.001 1136.3 654.001C1143.9 653.501 1151.6 654.101 1159.3 654.401C1163.8 654.501 1166.2 656.901 1166.5 661.501C1166.9 670.401 1167.8 679.501 1168.6 688.101Z" fill="white"/>
<path d="M594.9 637.101C594.9 622.101 594.8 608.001 594.9 593.801C595 583.401 591 577.601 580.9 574.901C576.6 573.801 572.1 573.101 567.6 573.001C551.3 572.801 534.9 572.801 518.6 573.001C515.7 573.001 514.2 572.101 512.9 569.501C479.3 498.901 523.9 411.801 600.9 398.001C668.3 385.901 730.1 427.501 744.3 494.401C758.5 561.301 711.3 629.001 643.7 639.101C627.1 641.701 610.7 641.101 594.9 637.101ZM601.9 462.301C628.7 488.601 655 514.301 681.5 540.201C690 519.401 683.8 492.201 667.3 476.001C650.2 459.301 622.6 453.101 601.9 462.301ZM565.2 499.901C556.7 519.601 562.1 547.001 579.9 564.301C597.9 581.801 625.3 586.301 644.4 577.601C617.9 551.501 591.7 525.801 565.2 499.901Z" fill="white"/>
<path d="M692.5 667.301C722.7 667.401 750 675.201 772.9 696.001C816.3 735.501 818 805.301 776.6 846.901C757.5 866.101 734.4 876.201 707.8 878.601C678.4 881.301 649.9 877.901 625.1 860.401C589.1 834.901 574.8 799.501 580.6 756.001C586.3 712.801 623.2 671.801 679.5 667.801C683.8 667.601 688.1 667.501 692.5 667.301ZM728.8 773.501C728.8 771.801 728.9 770.201 728.8 768.501C727.3 753.901 721.4 741.901 707.1 736.501C693.2 731.201 679.4 732.601 668 743.301C657.7 753.001 655.6 765.701 656.8 779.101C659.3 807.301 688.6 822.301 712.5 807.401C725 799.801 728.8 787.401 728.8 773.501Z" fill="white"/>
<path d="M783.901 436.801C783.901 434.301 783.901 432.501 783.901 430.701C783.901 413.401 783.701 396.001 783.901 378.701C784.001 367.701 784.801 366.801 795.301 365.001C817.701 361.301 840.301 359.601 863.001 360.101C871.001 360.301 872.201 361.001 872.301 369.001C872.601 389.601 872.301 410.301 872.301 431.001C872.301 442.401 869.601 440.801 882.201 442.101C889.101 442.801 896.001 444.001 903.001 445.001C906.901 445.601 909.001 447.601 908.801 451.701C908.001 466.301 907.201 480.901 906.201 495.501C905.901 499.901 903.601 502.401 898.901 502.601C890.301 503.101 881.601 504.001 873.001 504.501C869.801 504.701 868.8 505.701 868.6 508.901C867.7 524.001 866.501 539.201 865.501 554.301C864.801 565.001 870.301 571.501 881.001 572.101C886.801 572.401 892.701 572.301 898.501 571.601C903.501 571.001 905.901 573.001 906.201 577.601C907.201 592.201 908.001 606.801 908.801 621.401C909.101 625.901 906.501 628.201 902.401 628.901C896.701 629.901 890.901 631.201 885.201 631.701C866.101 633.301 846.901 634.301 828.301 628.101C806.901 621.101 794.301 604.101 792.801 581.601C791.201 557.501 789.001 533.401 787.201 509.401C787.001 506.401 785.6 506.001 783.1 505.801C773.8 505.401 764.501 504.801 755.201 504.301C751.201 504.101 749.001 502.201 748.301 498.001C745.401 480.701 744.301 463.201 745.801 445.701C746.501 437.301 746.9 437.101 755.1 436.801C764.4 436.601 773.701 436.801 783.901 436.801Z" fill="white"/>
<path d="M1371.8 230.001C1361.7 230.101 1358.4 227.101 1359 218.801C1359.8 206.801 1364.9 196.701 1374.1 188.901C1379.6 184.201 1385.9 183.501 1392.4 186.201C1404.1 191.201 1412.5 199.701 1417.2 211.601C1420.1 218.901 1418.1 223.001 1410.4 224.401C1397 226.701 1383.4 228.301 1371.8 230.001Z" fill="white"/>
<path d="M478.7 225.901C478.7 205.401 497.4 185.101 516.1 187.901C532.9 190.401 543.8 210.701 542.4 228.101C541.1 244.301 528.7 263.001 511 263.201C492.7 263.401 478.7 243.601 478.7 225.901Z" stroke="white" stroke-width="5" stroke-miterlimit="10"/>
<path d="M1472.8 736.098C1472.6 744.498 1472.4 757.698 1472.8 774.098C1473.3 796.098 1474.3 801.898 1469.9 807.798C1461.1 819.498 1440.4 818.298 1429.4 815.698C1413.5 811.998 1391 798.898 1388.4 777.098C1385.2 750.498 1413.4 726.298 1439.6 725.198C1455.4 724.398 1467.4 732.098 1472.8 736.098Z" stroke="white" stroke-width="5" stroke-miterlimit="10"/>
<path d="M1615.3 415.301C1613.9 416.501 1621.3 429.201 1630.1 437.501C1636.1 443.201 1643.4 447.601 1644 447.901C1645.6 448.801 1646.9 449.601 1647.9 450.101C1648.6 448.801 1649.5 446.901 1650.1 444.601C1650.9 441.501 1650.8 438.801 1650.6 437.001C1649.8 436.301 1648.8 435.401 1647.6 434.601C1646.2 433.701 1644.9 433.001 1643.8 432.501C1642.5 431.801 1641.3 430.701 1639 428.501C1636.6 426.201 1635.9 425.001 1630.3 418.501C1629.1 417.101 1628.7 416.701 1628.7 416.701C1628.4 416.901 1647.3 440.901 1645.9 442.101C1644.3 443.601 1617.6 413.401 1615.3 415.301Z" fill="white"/>
<path d="M1495.9 76.0999C1496.1 75.5999 1496.3 74.9999 1496.5 74.3999C1496.6 74.0999 1496.7 73.8999 1496.9 73.5999C1496.7 73.6999 1496.5 73.6999 1496.3 73.6999C1496.3 73.6999 1496 73.6999 1495.6 73.6999C1494.5 73.4999 1486.9 68.2999 1485.1 69.4999C1485 69.4999 1485 69.5999 1485 69.5999C1484.6 70.4999 1490.5 73.4999 1495.9 76.0999Z" fill="white"/>
<path d="M1676.8 280.9C1662.8 287.9 1648.7 288.4 1648.7 288.4C1634.4 288.9 1612.1 280 1612.1 280C1612.9 277.6 1612.8 275.9 1612.4 274.7C1610.6 268.5 1599.8 264.7 1585.5 265.9C1581.6 262.7 1576.3 258.2 1570.5 252.4C1570.5 252.4 1552.8 234.7 1540.9 214.5C1525.3 188 1501.3 92.2997 1550.5 57.4997C1593.8 26.7997 1673.4 57.3997 1706.1 111.3C1746.3 177.4 1707.8 265.4 1676.8 280.9Z" fill="#C5B0EE"/>
<path d="M1604.7 275.7C1612.7 279.4 1640.8 292.6 1668.3 281.6C1696.4 270.4 1707.4 241.2 1710.9 231.8C1734.7 168.7 1703.3 61.9004 1633.5 49.5004C1595.4 42.7004 1550 67.0004 1533.4 98.3004C1522.6 118.7 1522.2 140.5 1522.2 140.5C1522.1 149.1 1523.3 155.5 1525.7 168.2C1529.5 188 1534.1 197.8 1537 203.1C1537.7 204.4 1538.7 206.1 1541.5 210.5C1548.1 220.8 1557.6 235.6 1567.9 247.1C1573.9 253.7 1585.8 267 1604.7 275.7Z" fill="white"/>
<path d="M1521.9 137C1521.9 136 1521.9 135 1521.9 134C1522.6 127.3 1523.1 120.6 1524.1 114C1525.9 102.1 1529 90.6 1535 80C1541.2 85.7 1547.9 91 1553.5 97.2C1568.6 113.9 1583.2 131 1598 148C1598 148.3 1598 148.7 1598 149C1593 158 1588 167.1 1583 176.1C1582.4 175.2 1581.5 174.3 1581.1 173.3C1576.5 162.1 1569.9 152.2 1560.8 144.2C1549.9 134.5 1537.3 130.7 1523.9 140.4C1523.6 140.6 1523 140.5 1522.3 140.5C1522.1 139.3 1522 138.1 1521.9 137Z" fill="#BCBFEB"/>
<path d="M1725.1 182.999C1725.1 186.699 1725.1 190.299 1725.1 193.999C1725.4 207.999 1722.4 221.299 1717.4 234.199C1708.2 257.899 1692.8 275.599 1668 283.799C1667.4 281.899 1666.7 279.899 1666.1 277.999C1666.1 277.699 1666.1 277.299 1666.1 276.999C1671.2 274.099 1677 271.899 1681.3 268.099C1701.5 250.399 1710 226.999 1712 201.099C1713.4 182.899 1711.5 164.899 1706 147.499C1703.4 139.399 1700.2 131.499 1696.9 122.299C1695.6 124.399 1695 125.199 1694.6 126.099C1688.4 138.099 1682.3 150.099 1676.1 162.099C1667.8 178.399 1659.5 194.699 1651.1 210.999C1650.5 212.099 1649.6 213.099 1648.8 214.199C1648.2 214.199 1647.5 214.199 1646.9 214.199C1647.6 212.499 1648.2 210.799 1649 209.199C1654.7 198.199 1660.6 187.299 1666.1 176.199C1667.2 173.999 1666.7 170.999 1667 168.399C1667.7 166.699 1668.2 164.999 1669 163.299C1677 147.599 1685 131.899 1693.1 116.199C1694.2 117.599 1695.2 118.899 1696.6 120.699C1699.3 116.599 1701.8 112.899 1704.2 109.199C1705 110.199 1706 111.199 1706.5 112.299C1717.4 134.499 1724.9 157.799 1725.1 182.999Z" fill="#DACCF5"/>
<path d="M1551 57.1014C1562.7 47.1014 1575.5 39.6014 1591.3 37.7014C1609.2 35.6014 1626.1 38.3014 1642 46.9014C1640.6 50.3014 1639.2 53.7014 1637.7 57.1014C1636.3 56.7014 1634.8 56.4014 1633.5 55.8014C1620.9 50.0014 1607.9 46.5014 1593.7 46.8014C1575.3 47.2014 1559.9 53.8014 1546.9 66.5014C1544.3 69.0014 1541.7 71.4014 1539.1 73.9014C1542.4 69.0014 1545.7 64.0014 1549 59.1014C1549.7 58.4014 1550.4 57.7014 1551 57.1014Z" fill="#C5B0EE"/>
<path d="M1546 201.898C1553.3 201.898 1560.7 201.998 1568 201.998C1567.3 203.498 1566.8 204.998 1566 206.498C1561.7 214.698 1557.3 222.798 1553 230.998C1547.7 221.698 1542.4 212.398 1537 203.098C1540 202.698 1543 202.298 1546 201.898Z" fill="#BCBFEB"/>
<path d="M1667.9 283.902C1661.3 285.302 1654.6 286.702 1648 288.202C1646.7 288.202 1645.3 288.202 1644 288.202C1637.7 287.102 1631.4 286.002 1625.1 285.002C1628.8 284.702 1632.5 284.102 1636.2 284.202C1646.6 284.502 1656.5 282.602 1665.9 278.102C1666.6 280.002 1667.3 281.902 1667.9 283.902Z" fill="#B3B2EC"/>
<path d="M1535 79.9991C1536.4 77.9991 1537.8 75.8991 1539.2 73.8991C1541.8 71.3991 1544.4 68.9991 1547 66.4991C1560 53.8991 1575.4 47.1991 1593.8 46.7991C1608 46.4991 1621 49.9991 1633.6 55.7991C1634.9 56.3991 1636.4 56.6991 1637.8 57.0991C1636 64.3991 1634 71.6991 1632.5 79.0991C1631.8 82.5991 1632 86.3991 1631.8 89.9991C1630.6 91.1991 1629 92.2991 1628.2 93.7991C1624.1 100.999 1620.2 108.299 1616.2 115.599C1610.2 126.399 1604.1 137.199 1598 148.099C1583.2 131.099 1568.6 113.999 1553.5 97.2991C1547.9 90.9991 1541.2 85.6991 1535 79.9991Z" fill="#E5DDF5"/>
<path d="M1553 231C1557.3 222.8 1561.7 214.7 1566 206.5C1566.8 205.1 1567.3 203.5 1568 202C1569.9 201.7 1571.9 201.3 1573.8 201C1582.2 199.8 1586.2 194.2 1584.5 185.9C1583.9 182.7 1583.5 179.4 1582.9 176.1C1587.9 167.1 1592.9 158 1597.9 149C1602.2 155.2 1606.5 161.5 1610.8 167.7C1613.5 171.5 1616.2 175.3 1618.9 179.1C1618.9 179.7 1618.9 180.4 1618.9 181C1617.6 182.6 1616 184 1615.1 185.8C1602.6 209.9 1590.2 234.1 1577.7 258.2C1571.1 251.6 1564.5 245 1558 238.2C1556.1 236.1 1554.7 233.4 1553 231Z" fill="#CDD7F1"/>
<path d="M1649.8 121.998C1650.5 115.698 1651.3 109.398 1651.7 103.098C1651.8 102.098 1650.6 100.498 1649.5 99.8984C1645.3 97.6984 1640.9 95.9984 1636.7 93.8984C1634.9 92.9984 1633.4 91.2984 1631.8 89.9984C1632 86.2984 1631.7 82.5984 1632.5 79.0984C1634 71.6984 1636 64.3984 1637.8 57.0984C1639.2 53.6984 1640.6 50.2984 1642.1 46.8984C1644.7 48.2984 1647.3 49.6984 1649.9 51.0984C1649.4 55.0984 1648.9 59.1984 1648.4 63.1984C1648 66.5984 1647.5 69.9984 1647.1 73.3984C1646.5 77.8984 1647 81.2984 1652.3 83.2984C1656.6 84.8984 1660.2 88.2984 1664.1 90.8984C1662.8 100.798 1661.6 110.698 1660.3 120.598C1660.7 120.798 1661.2 120.898 1661.6 121.098C1667.5 112.098 1673.3 103.098 1679.2 94.0984C1681.8 90.3984 1684.4 86.5984 1687 82.8984C1688.3 84.5984 1689.7 86.1984 1691 87.8984C1688.7 92.5984 1686.4 97.2984 1684.1 101.998C1675.1 119.698 1666 137.398 1657.1 155.098C1656.5 156.198 1656.6 158.398 1657.3 159.398C1658.8 161.298 1660.9 162.698 1662.7 164.298C1664.1 165.598 1665.5 166.798 1666.9 168.098C1666.6 170.698 1667.1 173.698 1666 175.898C1660.5 186.998 1654.6 197.898 1648.9 208.898C1648.1 210.498 1647.5 212.198 1646.8 213.898C1635.2 235.898 1623.6 257.898 1612 279.898C1609.3 278.598 1606.5 277.298 1603.8 275.998C1607.4 268.898 1611.1 261.798 1614.6 254.698C1621.1 241.298 1627.6 227.798 1634 214.298C1639.6 203.098 1645.3 191.898 1651 180.798C1652.5 177.798 1652.1 175.598 1649.8 173.198C1646.8 170.198 1644 166.798 1641.1 163.698C1637.5 159.998 1637.3 156.298 1640.8 152.498C1648.7 143.798 1650.5 133.298 1649.8 121.998Z" fill="#3F64CD"/>
<path d="M1648.9 217.898C1654.6 237.598 1660.3 257.298 1666 276.998C1666 277.298 1666 277.698 1666 277.998C1656.6 282.398 1646.7 284.398 1636.3 284.098C1632.6 283.998 1628.9 284.598 1625.2 284.898C1621.8 283.598 1618.4 282.398 1615 281.098C1623.8 263.798 1632.5 246.498 1641.5 229.298C1643.5 225.298 1646.4 221.698 1648.9 217.898Z" fill="#CDD7F1"/>
<path d="M1648.9 217.898C1646.4 221.698 1643.5 225.298 1641.5 229.198C1632.5 246.398 1623.8 263.798 1615 280.998C1614 280.598 1613 280.198 1612 279.898C1623.6 257.898 1635.2 235.898 1646.8 213.898C1647.4 213.898 1648.1 213.898 1648.7 213.898C1648.8 215.298 1648.8 216.598 1648.9 217.898Z" fill="#BABDEB"/>
<path d="M1693 116.001C1693 115.701 1693 115.301 1693 115.001C1695.3 110.601 1697.7 106.201 1700 101.801C1701.4 104.201 1702.7 106.601 1704.1 108.901C1701.6 112.601 1699.2 116.301 1696.5 120.401C1695.2 118.701 1694.1 117.401 1693 116.001Z" fill="#C5AFEE"/>
<path d="M1648.4 63.2016C1648.9 59.2016 1649.4 55.1016 1649.9 51.1016C1659.9 56.0016 1668.5 62.8015 1676.1 70.9016C1673.7 74.3016 1671.3 77.6016 1669 81.0016C1662.1 75.1016 1655.2 69.2016 1648.4 63.2016Z" fill="#D7C8F5"/>
<path d="M1668.9 80.9984C1671.3 77.5984 1673.7 74.2984 1676 70.8984C1679.6 74.8984 1683.3 78.9984 1686.9 82.9984C1684.3 86.6984 1681.7 90.4984 1679.1 94.1984C1675.7 90.3984 1672.4 86.6984 1669 82.8984C1669.1 82.2984 1669 81.5984 1668.9 80.9984Z" fill="#C4AFEE"/>
<path d="M1684.1 102.1C1686.4 97.4 1688.7 92.7 1691 88C1693 91 1695 94 1697 96.9C1694.6 101.3 1692.3 105.6 1689.9 110C1688 107.3 1686.1 104.7 1684.1 102.1Z" fill="#C3AEEE"/>
<path d="M1690 109.998C1692.4 105.598 1694.7 101.298 1697.1 96.8984C1698.1 98.4984 1699.1 100.198 1700.1 101.798C1697.8 106.198 1695.4 110.598 1693.1 114.998C1692.4 113.998 1691.8 112.998 1691.1 111.998C1690.7 111.298 1690.3 110.698 1690 109.998Z" fill="#D7C6F5"/>
<path d="M1634.1 214.4C1627.6 227.9 1621.2 241.4 1614.7 254.8C1611.2 262 1607.5 269 1603.9 276.1C1593.7 272.4 1584.9 266.6 1577.9 258.2C1590.3 234.1 1602.7 209.9 1615.2 185.8C1616.1 184 1617.7 182.6 1619 181C1624 192.1 1629 203.3 1634.1 214.4Z" fill="#BBBEEB"/>
<path d="M1634.1 214.4C1629.1 203.3 1624.1 192.1 1619 181C1619 180.4 1619 179.7 1619 179.1C1628.4 161 1637.8 142.8 1647.2 124.7C1647.8 123.6 1648.9 122.9 1649.8 122C1650.5 133.3 1648.7 143.9 1640.8 152.6C1637.3 156.5 1637.5 160.1 1641.1 163.8C1644.1 166.9 1646.8 170.2 1649.8 173.3C1652.1 175.6 1652.5 177.9 1651 180.9C1645.3 192 1639.7 203.2 1634.1 214.4Z" fill="#E4DDF5"/>
<path d="M1690 110C1690.3 110.7 1690.7 111.3 1691 112C1688.6 115.7 1686 119.3 1684 123.2C1676.8 136.9 1669.8 150.6 1662.8 164.3C1660.9 162.7 1658.8 161.3 1657.4 159.4C1656.7 158.4 1656.6 156.3 1657.2 155.1C1666.1 137.3 1675.2 119.7 1684.2 102C1686.1 104.7 1688 107.3 1690 110Z" fill="#E3DCF5"/>
<path d="M1669.1 82.8984C1672.5 86.6984 1675.8 90.3984 1679.2 94.1984C1673.3 103.198 1667.5 112.198 1661.6 121.198C1661.2 120.998 1660.7 120.898 1660.3 120.698C1661.6 110.798 1662.8 100.898 1664.1 90.9984C1665.8 88.2984 1667.5 85.5984 1669.1 82.8984Z" fill="#E3DCF5"/>
<path d="M1536.1 203.9C1542.1 216.9 1557.4 248.9 1592.5 270.4C1606.4 278.9 1628.4 292.4 1655.8 287.5C1676.1 283.9 1689.3 272 1693.9 267.8C1728.6 235.8 1724.1 183.6 1722.9 168.9C1721.8 156.6 1718.3 120.9 1691.1 87.9997C1685 80.6997 1640 26.1997 1585.4 39.0997C1562.8 44.4997 1540.4 61.1997 1529.1 84.0997C1521.6 99.2997 1521.3 112.7 1520.9 129C1520 167.8 1532.9 196.8 1536.1 203.9Z" stroke="#3D63CC" stroke-width="4" stroke-miterlimit="10"/>
<defs>
<linearGradient id="paint0_linear_5088_6372" x1="0.573791" y1="468.304" x2="1748.65" y2="468.304" gradientUnits="userSpaceOnUse">
<stop offset="0.2994" stop-color="#3D63CC"/>
<stop offset="0.8356" stop-color="#5823C5"/>
<stop offset="1" stop-color="#5920C5"/>
</linearGradient>
</defs>
</svg>
