<svg width="20" height="20" viewBox="0 0 20 20" fill="none" xmlns="http://www.w3.org/2000/svg">
  <path d="M10.934 1.71648L6.31732 6.33314C6.00898 6.64148 5.83398 7.06648 5.83398 7.50814V15.8331C5.83398 16.7498 6.58398 17.4998 7.50065 17.4998H15.0007C15.6673 17.4998 16.2673 17.0998 16.534 16.4915L19.2507 10.1498C19.9507 8.49981 18.7423 6.66648 16.9507 6.66648H12.2423L13.034 2.84981C13.1173 2.43314 12.9923 2.00814 12.6923 1.70814C12.2007 1.22481 11.4173 1.22481 10.934 1.71648ZM2.50065 17.4998C3.41732 17.4998 4.16732 16.7498 4.16732 15.8331V9.16648C4.16732 8.24981 3.41732 7.49981 2.50065 7.49981C1.58398 7.49981 0.833984 8.24981 0.833984 9.16648V15.8331C0.833984 16.7498 1.58398 17.4998 2.50065 17.4998Z" fill="#292433"/>
</svg>
