<svg width="99" height="48" viewBox="0 0 99 48" fill="none" xmlns="http://www.w3.org/2000/svg">
<path d="M11.4798 3.05258C12.7288 3.04216 13.9061 3.0301 15.0834 3.02509C15.2787 3.02426 15.5071 2.99405 15.6642 3.07961C16.7389 3.66503 17.8941 3.33272 19.0082 3.37583C20.8471 3.447 22.69 3.4102 24.5309 3.44086C26.0646 3.4664 26.5379 3.98582 26.5224 5.49908C26.5058 7.12914 26.5187 8.75949 26.5187 10.3932C26.4547 10.3992 26.5404 10.4167 26.5915 10.3827C28.6957 8.97873 31.0308 8.69644 33.4942 8.879C34.3866 8.94513 35.295 8.76294 36.1972 8.74153C37.3493 8.71418 38.5026 8.7349 39.7292 8.7349C39.7292 8.19147 39.7402 7.73915 39.7268 7.28755C39.7001 6.3831 39.6371 5.4792 39.6308 4.57478C39.6215 3.23466 40.4918 2.34316 41.8248 2.35361C44.2059 2.37227 46.587 2.4167 48.9676 2.46906C49.9349 2.49034 50.5287 3.06858 50.5464 4.03433C50.5741 5.54621 50.5538 7.05897 50.5538 8.68363C53.6573 8.48037 56.351 8.98254 58.1406 11.7115C58.4365 11.4394 58.6813 11.207 58.9337 10.9831C60.6314 9.47707 62.671 8.89687 64.8897 8.8282C66.1578 8.78895 67.427 8.78726 68.6956 8.76485C70.6592 8.73015 72.6226 8.68246 74.5863 8.65913C75.8178 8.6445 76.4497 9.2977 76.4146 10.5165C76.4012 10.9803 76.3613 11.4433 76.3243 12.0591C76.5061 11.795 76.6254 11.6552 76.7083 11.4965C78.9206 7.26623 83.1015 5.88139 87.3055 6.39804C88.3384 6.52498 89.3822 6.80784 90.3467 7.20026C93.8679 8.63292 95.8108 11.3413 96.0096 15.0719C96.1401 17.5201 95.8234 19.9927 95.6911 22.4536C95.6479 23.2587 95.5173 24.06 95.4942 24.865C95.4662 25.8394 95.1638 26.6797 94.4543 27.3874C96.0157 29.0526 96.5597 31.0498 96.501 33.2638C96.4735 34.2989 96.1464 35.1293 95.2584 35.5409C95.5843 36.3931 96.0273 37.1974 96.1926 38.0547C96.5783 40.0542 95.8416 41.7033 94.2954 42.9978C93.1644 43.9447 91.833 44.5016 90.4152 44.8509C88.3196 45.3673 86.2026 45.4835 84.0641 45.1249C82.1057 44.7965 80.3429 44.0774 78.9094 42.5918C77.1046 44.0184 75.0507 44.7018 72.7815 44.7644C70.5473 44.826 68.4447 44.3714 66.5136 43.1417C66.142 43.8426 65.5994 44.2266 64.7908 44.1752C64.6687 44.1674 64.5012 44.2538 64.418 44.3507C63.8471 45.0156 63.1111 45.1468 62.2855 45.0809C60.7201 44.9561 59.1476 44.8999 57.5892 44.7194C57.0452 44.6564 56.5341 44.3111 55.8932 44.0476C55.2844 44.7328 54.3364 44.7955 53.2878 44.6654C52.0476 44.5115 50.7845 44.5342 49.5479 44.3619C48.8674 44.267 48.2209 43.9288 47.436 43.6578C46.9637 44.2528 46.1038 44.3966 45.1528 44.332C43.4927 44.2193 41.8307 44.1302 40.1684 44.0553C40.0181 44.0485 39.8165 44.1825 39.7125 44.3106C39.1968 44.9456 38.544 45.2241 37.7265 45.2468C36.4757 45.2815 35.227 45.4125 33.9766 45.4238C33.4839 45.4282 32.8918 45.352 32.5196 45.0774C32.0338 44.7191 31.6171 44.7601 31.0972 44.8274C28.3149 45.1876 25.9009 44.4578 23.9802 42.3458C23.8814 42.2371 23.7895 42.1222 23.6945 42.0101C23.6185 41.9203 23.5427 41.8302 23.4599 41.732C22.876 42.2596 22.3372 42.7875 21.7565 43.2647C17.3642 46.8739 7.5733 47.0465 4.04447 39.7317C2.08373 35.6673 2.09636 31.5178 4.12794 27.4393C4.35761 26.9783 4.499 26.5944 4.27377 26.0801C4.13477 25.7627 4.14312 25.3618 4.15555 25.0008C4.38194 18.4254 4.61682 11.8503 4.85565 5.27527C4.90184 4.00374 5.78327 3.12312 7.06275 3.09343C8.5107 3.05984 9.95955 3.06499 11.4798 3.05258ZM46.9602 27.3175C45.7654 27.446 44.5731 27.6203 43.3748 27.6855C42.6786 27.7234 42.5304 28.0004 42.5494 28.6408C42.6749 32.87 42.7768 37.1 42.8559 41.3303C42.8676 41.9559 43.1148 42.1249 43.6942 42.1284C45.0192 42.1364 46.345 42.1759 47.6684 42.2425C48.2776 42.2731 48.487 42.0651 48.4798 41.4481C48.4506 38.9534 48.4535 36.4581 48.4734 33.9632C48.4774 33.4567 48.557 32.9379 48.6894 32.4483C48.8755 31.7604 49.3841 31.4823 50.0947 31.5569C50.8533 31.6367 51.3606 32.1499 51.4001 33.2451C51.4853 35.6115 51.4622 37.9819 51.4809 40.3507C51.4858 40.9729 51.4817 41.5953 51.4817 42.2476C53.068 42.3607 54.6092 42.4527 56.1463 42.59C56.6857 42.6382 56.9066 42.4798 56.9134 41.9301C56.9395 39.8043 56.9835 37.6786 57.0341 35.5532C57.0527 34.7733 57.0654 33.9892 57.1602 33.2166C57.2368 32.592 57.4669 32.0064 58.2511 31.9533C58.9239 31.9078 59.4387 32.2929 59.6326 33.1192C59.8046 33.852 59.9461 34.6133 59.9431 35.3614C59.9344 37.5364 59.8691 39.7121 59.774 41.8853C59.7492 42.4521 59.8823 42.6745 60.465 42.7029C61.8369 42.77 63.2084 42.867 64.5758 42.9963C65.1873 43.0541 65.4132 42.8511 65.4203 42.2414C65.4451 40.1147 65.6257 37.9819 65.5102 35.8642C65.4249 34.2992 65.0981 32.7164 64.6472 31.2104C64.1515 29.5549 62.9605 28.3938 61.2423 27.9444C59.0357 27.3673 56.9514 27.5663 55.1602 29.2568C54.3896 28.181 53.3887 27.5147 52.1054 27.3436C50.8396 27.1748 49.6109 27.2677 48.4711 28.128C48.4758 26.8944 47.6718 27.3313 46.9602 27.3175ZM19.1044 30.7544C19.2845 30.8102 19.4667 30.92 19.6445 30.9135C21.1647 30.8577 22.6835 30.7632 24.2039 30.7199C24.7149 30.7054 24.884 30.4837 24.9219 30.0142C25.0358 28.6023 24.7463 27.2993 23.9748 26.0999C21.8512 22.7988 17.5422 21.3593 13.7336 22.7877C5.93478 25.7127 4.95338 35.2774 8.96203 40.2609C11.0732 42.8854 13.9866 43.7192 17.2426 43.4945C20.2088 43.2897 22.3308 41.7538 23.7065 39.1638C24.7001 37.2931 24.8197 35.2343 24.9149 33.1817C24.9214 33.041 24.5657 32.7691 24.3609 32.7505C21.5782 32.4985 18.7918 32.2865 16.0079 32.0472C15.6055 32.0126 15.4638 32.1243 15.5184 32.5267C15.6759 33.6886 15.8288 34.8513 15.9605 36.0163C16.0069 36.4265 16.18 36.6211 16.6052 36.6316C17.3832 36.6508 18.1605 36.7 18.9404 36.7368C18.7936 37.6875 18.3823 38.1911 17.555 38.453C16.0383 38.933 14.6181 38.4151 13.9885 36.9567C12.8976 34.4298 12.8846 31.8749 14.2004 29.3972C14.6154 28.6158 15.2627 28.0585 16.1421 27.8165C17.6103 27.4125 18.6194 28.0122 18.9167 29.4847C18.9935 29.8652 19.0003 30.2598 19.1044 30.7544ZM11.2278 22.8505C11.6137 22.6385 11.9896 22.4049 12.388 22.2195C13.0423 21.9151 13.9663 21.8129 14.3055 21.31C14.6778 20.7579 14.5376 19.85 14.5808 19.0948C14.6075 18.6277 14.8442 18.4463 15.2733 18.4194C16.1789 18.3625 17.0862 18.3224 17.9888 18.2346C18.604 18.1749 18.8384 18.3953 18.8078 19.0147C18.7694 19.7911 18.7986 20.5707 18.7986 21.3925C20.8933 21.8706 22.6688 22.9381 24.2347 24.6548C24.3477 24.2856 24.4664 24.057 24.4812 23.822C24.5549 22.6513 24.6025 21.4789 24.657 20.307C24.8883 15.3265 25.1116 10.3457 25.3588 5.36597C25.3884 4.7708 25.1594 4.59159 24.6021 4.59253C23.0073 4.59519 21.4115 4.59332 19.8181 4.53702C19.1646 4.51393 18.9714 4.73703 18.9696 5.3719C18.9635 7.62062 18.8782 9.86929 18.8852 12.1178C18.8874 12.8142 18.6076 13.0234 17.9816 13.0272C17.2704 13.0315 16.5554 13.037 15.8494 13.1115C15.1628 13.184 15.0071 12.923 15.0655 12.2784C15.2858 9.84533 15.4424 7.40649 15.6656 4.97369C15.7255 4.32019 15.4817 4.17313 14.889 4.18777C13.0986 4.232 11.307 4.25586 9.51611 4.24563C8.89347 4.24207 8.69939 4.50101 8.69979 5.07854C8.70045 6.03155 8.65791 6.98475 8.6256 7.9376C8.43757 13.4829 8.24492 19.0281 8.06575 24.5737C8.05832 24.8039 8.16962 25.0379 8.22928 25.2853C9.25932 24.4421 10.1977 23.674 11.2278 22.8505ZM43.9711 16.4388C44.0612 18.9055 44.1649 21.3718 44.2325 23.8391C44.251 24.5146 44.4986 24.792 45.1987 24.78C46.3998 24.7593 47.6038 24.7851 48.8035 24.85C49.4487 24.8848 49.667 24.6811 49.6521 24.0275C49.6053 21.975 49.5952 19.9211 49.6108 17.8681C49.6162 17.1655 49.6814 16.4517 49.8267 15.7655C49.9537 15.166 50.3304 14.7098 51.0255 14.6473C51.7381 14.5831 52.2935 14.8362 52.5866 15.4924C52.7837 15.9335 52.9774 16.4063 53.0222 16.879C53.1578 18.3116 53.2776 19.7504 53.2932 21.188C53.3061 22.3741 53.1619 23.562 53.0809 24.8501C54.7557 24.9826 56.4087 25.125 58.0645 25.222C58.1947 25.2297 58.4557 24.9285 58.467 24.7584C58.6747 21.6365 58.8799 18.5082 58.3199 15.4025C57.6509 11.6923 55.495 9.78881 51.9895 9.84311C51.1694 9.85582 50.3535 10.1353 49.3971 10.3186C49.3971 8.36435 49.381 6.38559 49.4067 4.40738C49.4147 3.79556 49.1843 3.60617 48.5854 3.60907C47.1387 3.61607 45.691 3.58018 44.2453 3.52391C43.6611 3.50117 43.4643 3.70812 43.4888 4.2872C43.6577 8.29147 43.8047 12.2967 43.9711 16.4388ZM69.8596 25.0755C71.2802 25.0293 72.701 24.9864 74.1215 24.9349C74.5976 24.9176 74.712 24.6126 74.7276 24.1894C74.8956 19.6453 75.0683 15.1014 75.2559 10.5581C75.2806 9.96052 75.0295 9.79722 74.4699 9.81532C73.2438 9.85496 72.016 9.85697 70.789 9.85388C70.076 9.85208 69.3321 9.76886 69.5416 10.9201C69.2937 10.8147 69.1595 10.7613 69.0282 10.7013C65.9501 9.29379 62.5151 10.3884 60.8565 13.3506C59.594 15.6052 59.595 17.9864 60.385 20.3752C61.3884 23.4091 64.1413 25.0589 67.2917 24.4921C68.0698 24.3521 68.7927 23.9083 69.4934 23.6234C69.5752 24.0593 69.6636 24.5306 69.8596 25.0755ZM25.9372 32.851C25.5458 34.2439 25.5214 35.6567 25.8052 37.0622C26.3387 39.704 27.7056 41.6553 30.4713 42.3339C32.1901 42.7556 33.8195 42.556 35.3523 41.2966C35.3523 41.6598 35.3495 41.8684 35.3528 42.077C35.3677 43.0313 35.3687 43.0414 36.2915 43.008C37.4436 42.9663 38.5947 42.8943 39.7469 42.8587C40.2653 42.8427 40.4917 42.6232 40.5088 42.0997C40.6572 37.5557 40.8109 33.0117 40.9859 28.4686C41.0092 27.8647 40.7745 27.7083 40.2148 27.726C38.9398 27.7664 37.6626 27.7903 36.3877 27.7624C35.6589 27.7464 35.1663 27.8834 35.3042 28.7251C34.4556 28.4873 33.653 28.1396 32.8226 28.0513C29.6467 27.7136 27.1253 29.473 25.9372 32.851ZM26.8274 16.2867C26.9554 17.5663 26.899 18.898 27.2449 20.1162C28.4177 24.2462 32.7016 25.8078 36.3405 23.5324C36.3675 23.5155 36.4279 23.5515 36.5172 23.5741C36.5172 23.7811 36.5386 24.001 36.5132 24.2153C36.4299 24.9195 36.7099 25.1745 37.4315 25.113C38.5786 25.0151 39.7322 24.9855 40.8837 24.9482C41.389 24.9318 41.6522 24.7321 41.6699 24.2049C41.8227 19.639 41.9777 15.0732 42.15 10.508C42.1718 9.92997 41.9171 9.8017 41.4023 9.81601C40.1768 9.85007 38.9497 9.87022 37.7242 9.84816C36.9832 9.83483 36.3195 9.83488 36.4478 10.9212C36.1817 10.8025 36.0083 10.7226 35.8329 10.6473C33.5023 9.64716 31.3251 9.93817 29.347 11.4946C27.847 12.6749 27.1078 14.2976 26.8274 16.2867ZM82.5475 29.6531C81.1005 33.4358 82.4159 36.1717 86.2569 37.3591C86.5603 37.4529 86.8775 37.502 87.1818 37.5931C87.7436 37.7614 88.332 37.8838 88.8483 38.1451C89.181 38.3136 89.4048 38.6956 89.6774 38.9819C89.3329 39.1662 89.0039 39.397 88.6383 39.5184C88.399 39.5978 88.1047 39.5377 87.8387 39.5075C86.8181 39.3916 86.4939 39.1117 86.2764 38.1119C86.1649 37.5997 85.8416 37.4471 85.3703 37.4608C84.4632 37.4872 83.556 37.5083 82.6489 37.5343C81.7173 37.5611 81.5273 37.755 81.5585 38.6715C81.618 40.4155 82.6352 41.5165 84.0997 42.2421C86.1236 43.2449 88.2939 43.3556 90.4929 43.0721C91.6726 42.92 92.7832 42.5385 93.7301 41.7848C95.7996 40.1376 95.5867 37.0274 93.2726 35.7602C92.4886 35.3309 91.5981 35.0898 90.7474 34.7878C89.8959 34.4855 89.0179 34.2524 88.1807 33.9166C87.6179 33.6908 87.2206 33.1911 87.3969 32.5833C87.497 32.2384 87.9026 31.8623 88.2557 31.7356C88.8725 31.5142 89.5106 31.6769 89.8221 32.3265C90.0163 32.7313 90.1067 33.2018 90.1599 33.6527C90.2139 34.1108 90.3616 34.385 90.865 34.3987C92.0416 34.4307 93.2178 34.4818 94.3944 34.5177C94.9327 34.5342 95.2413 34.2155 95.2883 33.7293C95.5287 31.2448 94.8748 28.4724 92.0727 27.1479C91.1842 26.7279 90.1757 26.4896 89.1958 26.3455C86.2992 25.9193 83.7957 27.177 82.5475 29.6531ZM70.9235 27.4193C69.7282 27.9745 68.8277 28.853 68.1521 29.9652C67.0891 31.7153 66.7096 33.6433 66.7964 35.6562C66.8813 37.626 67.5139 39.3904 69.0374 40.7472C70.6265 42.1623 72.5553 42.6411 74.6131 42.6621C77.5809 42.6925 80.3498 40.5677 81.118 37.7434C81.3284 36.9698 81.2216 36.8187 80.4391 36.8398C79.2618 36.8715 78.0835 36.8964 76.9089 36.9736C76.6658 36.9895 76.3554 37.1648 76.2161 37.3639C75.6669 38.149 74.6865 38.5241 73.7013 38.255C72.7462 37.9941 72.1073 37.1872 72.052 36.1063C72.3189 36.1063 72.5841 36.1124 72.8489 36.1054C74.8848 36.0519 76.921 36.0076 78.9562 35.9355C79.9404 35.9007 80.1606 35.6577 80.1349 34.6735C80.119 34.0642 80.063 33.4539 79.9883 32.8485C79.4039 28.1177 75.3714 25.6548 70.9235 27.4193ZM89.2872 15.9117C88.8952 15.7715 88.503 15.632 88.1113 15.4911C86.0605 14.7539 84.0137 14.0055 81.9578 13.2828C80.6957 12.8392 80.2939 12.9901 79.7315 14.1698C79.3968 14.8718 79.0809 15.6016 78.8984 16.3531C78.3186 18.7407 78.6038 20.9912 80.3253 22.8693C83.4072 26.2315 88.7849 25.4327 91.0586 21.2803C91.6441 20.2109 92.0997 19.0717 92.6388 17.9762C92.919 17.4067 92.7164 17.12 92.1637 16.9348C91.2351 16.6236 90.3154 16.2863 89.2872 15.9117ZM91.895 12.9859C91.0303 12.532 90.5287 12.6526 90.1135 13.4977C90.6592 13.7036 91.2009 13.8993 91.7356 14.1123C92.2382 14.3125 92.3885 14.1121 92.2664 13.6461C92.2128 13.442 92.0748 13.2598 91.895 12.9859ZM82.7514 10.1175C82.7467 10.3086 82.68 10.6396 82.747 10.6691C83.3358 10.9285 83.9484 11.1342 84.554 11.3558C84.6305 11.2967 84.7069 11.2377 84.7834 11.1787C84.628 10.8207 84.5514 10.389 84.2994 10.1214C83.8863 9.68296 83.3434 9.72215 82.7514 10.1175Z" fill="url(#paint0_linear_215_8967)"/>
<path d="M47.0283 27.3135C47.6718 27.3315 48.4759 26.8946 48.4712 28.1281C49.6109 27.2678 50.8396 27.1749 52.1054 27.3437C53.3887 27.5148 54.3896 28.1811 55.1602 29.257C56.9514 27.5664 59.0357 27.3674 61.2423 27.9445C62.9605 28.3939 64.1515 29.555 64.6472 31.2105C65.0981 32.7165 65.4249 34.2994 65.5102 35.8644C65.6257 37.982 65.4451 40.1148 65.4203 42.2415C65.4132 42.8512 65.1873 43.0542 64.5758 42.9964C63.2084 42.8671 61.8369 42.7701 60.465 42.7031C59.8823 42.6746 59.7492 42.4522 59.774 41.8854C59.8691 39.7122 59.9344 37.5365 59.9431 35.3615C59.9461 34.6134 59.8046 33.8521 59.6326 33.1194C59.4387 32.2931 58.9239 31.9079 58.2512 31.9534C57.4669 32.0065 57.2368 32.5921 57.1602 33.2167C57.0654 33.9893 57.0527 34.7735 57.0341 35.5533C56.9835 37.6787 56.9395 39.8044 56.9134 41.9303C56.9066 42.48 56.6857 42.6384 56.1463 42.5902C54.6092 42.4528 53.068 42.3609 51.4817 42.2477C51.4817 41.5954 51.4859 40.9731 51.4809 40.3508C51.4622 37.982 51.4854 35.6116 51.4001 33.2452C51.3606 32.15 50.8533 31.6368 50.0947 31.5571C49.3841 31.4824 48.8755 31.7605 48.6895 32.4484C48.5571 32.938 48.4774 33.4568 48.4734 33.9634C48.4535 36.4582 48.4506 38.9535 48.4798 41.4482C48.487 42.0652 48.2776 42.2732 47.6684 42.2426C46.345 42.176 45.0193 42.1365 43.6942 42.1285C43.1149 42.125 42.8676 41.956 42.8559 41.3304C42.7768 37.1001 42.675 32.8701 42.5494 28.6409C42.5304 28.0005 42.6786 27.7235 43.3748 27.6856C44.5731 27.6204 45.7654 27.4461 47.0283 27.3135Z" fill="white"/>
<path d="M19.0713 30.7012C18.9998 30.2598 18.993 29.8653 18.9162 29.4848C18.6189 28.0123 17.6098 27.4125 16.1416 27.8166C15.2622 28.0586 14.6149 28.6159 14.1999 29.3972C12.8841 31.8749 12.8971 34.4298 13.988 36.9567C14.6176 38.4151 16.0378 38.933 17.5545 38.453C18.3818 38.1912 18.7931 37.6876 18.9399 36.7368C18.16 36.7 17.3827 36.6509 16.6047 36.6317C16.1795 36.6212 16.0064 36.4265 15.96 36.0163C15.8283 34.8514 15.6754 33.6886 15.5179 32.5268C15.4633 32.1243 15.605 32.0126 16.0074 32.0472C18.7913 32.2866 21.5777 32.4985 24.3604 32.7506C24.5652 32.7691 24.9209 33.0411 24.9143 33.1818C24.8192 35.2343 24.6996 37.2932 23.706 39.1638C22.3303 41.7538 20.2083 43.2897 17.2421 43.4945C13.9861 43.7193 11.0727 42.8855 8.96152 40.2609C4.95288 35.2774 5.93427 25.7127 13.7331 22.7878C17.5416 21.3594 21.8507 22.7988 23.9743 26.1C24.7458 27.2993 25.0353 28.6024 24.9214 30.0142C24.8835 30.4837 24.7143 30.7054 24.2034 30.72C22.683 30.7633 21.1642 30.8577 19.644 30.9135C19.4662 30.9201 19.284 30.8103 19.0713 30.7012Z" fill="white"/>
<path d="M11.1819 22.8784C10.1977 23.6742 9.25935 24.4423 8.22931 25.2855C8.16965 25.0381 8.05835 24.8041 8.06578 24.5739C8.24496 19.0283 8.4376 13.4831 8.62563 7.93781C8.65794 6.98495 8.70048 6.03176 8.69982 5.07874C8.69942 4.50122 8.8935 4.24228 9.51614 4.24583C11.307 4.25607 13.0986 4.2322 14.889 4.18798C15.4817 4.17334 15.7255 4.3204 15.6656 4.9739C15.4424 7.4067 15.2858 9.84554 15.0655 12.2786C15.0072 12.9232 15.1628 13.1842 15.8495 13.1117C16.5554 13.0372 17.2704 13.0317 17.9816 13.0274C18.6077 13.0236 18.8874 12.8144 18.8852 12.118C18.8782 9.8695 18.9636 7.62083 18.9697 5.37211C18.9714 4.73724 19.1647 4.51414 19.8181 4.53722C21.4115 4.59352 23.0073 4.5954 24.6021 4.59273C25.1595 4.5918 25.3884 4.77101 25.3589 5.36618C25.1117 10.3459 24.8883 15.3267 24.657 20.3072C24.6026 21.4791 24.5549 22.6515 24.4812 23.8222C24.4664 24.0573 24.3477 24.2858 24.2348 24.655C22.6688 22.9384 20.8934 21.8708 18.7986 21.3927C18.7986 20.5709 18.7695 19.7913 18.8078 19.0149C18.8384 18.3955 18.604 18.1751 17.9889 18.2349C17.0863 18.3226 16.1789 18.3627 15.2734 18.4196C14.8442 18.4466 14.6075 18.6279 14.5808 19.095C14.5376 19.8502 14.6778 20.7581 14.3055 21.3102C13.9664 21.8131 13.0423 21.9153 12.3881 22.2197C11.9896 22.4051 11.6138 22.6387 11.1819 22.8784Z" fill="white"/>
<path d="M43.9645 16.3704C43.8043 12.2969 43.6572 8.29169 43.4883 4.28742C43.4639 3.70835 43.6607 3.5014 44.2448 3.52413C45.6906 3.5804 47.1383 3.6163 48.5849 3.6093C49.1839 3.6064 49.4143 3.79578 49.4063 4.4076C49.3805 6.38582 49.3967 8.36457 49.3967 10.3189C50.3531 10.1355 51.169 9.85604 51.989 9.84334C55.4945 9.78903 57.6504 11.6925 58.3194 15.4027C58.8794 18.5084 58.6743 21.6368 58.4666 24.7586C58.4553 24.9287 58.1942 25.2299 58.0641 25.2223C56.4083 25.1252 54.7552 24.9828 53.0805 24.8503C53.1614 23.5622 53.3057 22.3744 53.2928 21.1882C53.2772 19.7506 53.1574 18.3118 53.0217 16.8792C52.977 16.4065 52.7832 15.9337 52.5862 15.4926C52.2931 14.8364 51.7376 14.5834 51.025 14.6475C50.33 14.7101 49.9533 15.1662 49.8263 15.7658C49.681 16.4519 49.6158 17.1658 49.6104 17.8683C49.5948 19.9213 49.6049 21.9752 49.6517 24.0277C49.6666 24.6814 49.4483 24.885 48.803 24.8502C47.6034 24.7854 46.3994 24.7595 45.1983 24.7802C44.4981 24.7923 44.2505 24.5149 44.232 23.8394C44.1645 21.372 44.0607 18.9057 43.9645 16.3704Z" fill="white"/>
<path d="M69.8058 25.0389C69.6636 24.5308 69.5752 24.0595 69.4934 23.6236C68.7927 23.9085 68.0697 24.3523 67.2917 24.4923C64.1413 25.0591 61.3883 23.4094 60.385 20.3754C59.595 17.9866 59.594 15.6055 60.8565 13.3508C62.5151 10.3886 65.95 9.294 69.0282 10.7015C69.1594 10.7615 69.2937 10.8149 69.5415 10.9203C69.3321 9.76908 70.0759 9.85229 70.789 9.85409C72.016 9.85719 73.2437 9.85517 74.4699 9.81553C75.0295 9.79744 75.2805 9.96074 75.2559 10.5583C75.0683 15.1016 74.8956 19.6455 74.7276 24.1896C74.7119 24.6128 74.5976 24.9178 74.1214 24.9351C72.701 24.9867 71.2802 25.0295 69.8058 25.0389ZM69.0292 15.553C68.0317 14.7822 66.9792 14.8222 66.2187 15.6598C65.4727 16.4814 65.3745 17.9489 66.0046 18.8602C66.7422 19.9272 68.1313 20.0353 68.9485 19.0893C69.7351 18.1789 69.806 16.6331 69.0292 15.553Z" fill="white"/>
<path d="M25.9519 32.7938C27.1247 29.4731 29.6461 27.7137 32.8219 28.0514C33.6523 28.1398 34.455 28.4874 35.3035 28.7253C35.1657 27.8835 35.6583 27.7465 36.387 27.7625C37.662 27.7905 38.9391 27.7666 40.2141 27.7262C40.7738 27.7084 41.0086 27.8648 40.9853 28.4687C40.8102 33.0118 40.6566 37.5558 40.5082 42.0999C40.4911 42.6233 40.2646 42.8428 39.7463 42.8588C38.594 42.8944 37.443 42.9664 36.2908 43.0081C35.3681 43.0415 35.3671 43.0314 35.3521 42.0771C35.3488 41.8686 35.3516 41.6599 35.3516 41.2968C33.8188 42.5561 32.1895 42.7557 30.4706 42.334C27.705 41.6555 26.338 39.7041 25.8045 37.0624C25.5207 35.6568 25.5452 34.2441 25.9519 32.7938ZM33.9119 37.5663C35.1045 36.9989 35.3888 35.9723 35.3436 34.7725C35.311 33.9059 34.8053 33.2429 33.9722 32.9998C33.1936 32.7726 32.3709 33.0397 31.8771 33.6801C31.2682 34.4696 31.1827 35.791 31.6846 36.655C32.1216 37.4072 32.8593 37.7332 33.9119 37.5663Z" fill="white"/>
<path d="M26.834 16.2209C27.1075 14.2978 27.8468 12.6751 29.3468 11.4948C31.3249 9.93839 33.5021 9.64738 35.8327 10.6476C36.0081 10.7228 36.1815 10.8028 36.4476 10.9214C36.3193 9.8351 36.9829 9.83505 37.7239 9.84838C38.9495 9.87044 40.1765 9.85029 41.4021 9.81623C41.9169 9.80192 42.1715 9.93019 42.1497 10.5082C41.9774 15.0734 41.8225 19.6392 41.6696 24.2051C41.652 24.7323 41.3888 24.932 40.8835 24.9484C39.7319 24.9858 38.5784 25.0153 37.4313 25.1132C36.7097 25.1748 36.4297 24.9197 36.513 24.2155C36.5384 24.0012 36.5169 23.7813 36.5169 23.5744C36.4277 23.5518 36.3673 23.5157 36.3403 23.5326C32.7013 25.808 28.4175 24.2464 27.2447 20.1164C26.8987 18.8982 26.9552 17.5666 26.834 16.2209ZM33.9867 15.1078C32.7041 15.6798 32.1444 17.1485 32.7113 18.4757C33.0368 19.2379 33.6211 19.6858 34.4503 19.735C35.2487 19.7824 35.8296 19.3478 36.1325 18.6621C36.3511 18.1671 36.4744 17.5952 36.49 17.0533C36.5312 15.6293 35.5167 14.8229 33.9867 15.1078Z" fill="white"/>
<path d="M82.5744 29.6045C83.795 27.1772 86.2985 25.9195 89.1951 26.3456C90.1749 26.4898 91.1835 26.7281 92.072 27.148C94.8741 28.4725 95.528 31.245 95.2876 33.7295C95.2406 34.2156 94.932 34.5343 94.3937 34.5179C93.2171 34.4819 92.0409 34.4309 90.8643 34.3989C90.3609 34.3852 90.2132 34.1109 90.1592 33.6529C90.106 33.202 90.0155 32.7315 89.8214 32.3267C89.5099 31.677 88.8718 31.5144 88.255 31.7358C87.9019 31.8625 87.4963 32.2385 87.3962 32.5835C87.2199 33.1913 87.6172 33.691 88.18 33.9167C89.0172 34.2526 89.8952 34.4857 90.7467 34.788C91.5974 35.09 92.4879 35.3311 93.2719 35.7604C95.586 37.0276 95.7989 40.1378 93.7294 41.785C92.7825 42.5387 91.6719 42.9202 90.4922 43.0723C88.2932 43.3558 86.1229 43.2451 84.099 42.2423C82.6345 41.5167 81.6173 40.4157 81.5578 38.6717C81.5266 37.7552 81.7166 37.5613 82.6482 37.5345C83.5553 37.5084 84.4625 37.4874 85.3696 37.461C85.8409 37.4473 86.1642 37.5999 86.2757 38.1121C86.4933 39.1119 86.8174 39.3918 87.838 39.5077C88.104 39.5379 88.3983 39.598 88.6376 39.5185C89.0032 39.3971 89.3322 39.1664 89.6767 38.982C89.4041 38.6957 89.1803 38.3137 88.8476 38.1453C88.3313 37.884 87.7429 37.7616 87.1811 37.5933C86.8768 37.5022 86.5596 37.4531 86.2562 37.3593C82.4152 36.1718 81.0998 33.436 82.5744 29.6045Z" fill="white"/>
<path d="M70.9722 27.3924C75.3711 25.655 79.4037 28.1179 79.988 32.8488C80.0628 33.4541 80.1188 34.0644 80.1347 34.6737C80.1604 35.6579 79.9401 35.9009 78.956 35.9357C76.9207 36.0078 74.8845 36.0521 72.8486 36.1056C72.5838 36.1126 72.3187 36.1066 72.0518 36.1066C72.1071 37.1875 72.746 37.9943 73.7011 38.2552C74.6862 38.5244 75.6666 38.1492 76.2158 37.3641C76.3551 37.165 76.6656 36.9898 76.9086 36.9738C78.0832 36.8966 79.2615 36.8717 80.4388 36.84C81.2213 36.8189 81.3282 36.97 81.1178 37.7436C80.3495 40.568 77.5806 42.6927 74.6129 42.6623C72.5551 42.6413 70.6262 42.1625 69.0372 40.7474C67.5136 39.3906 66.881 37.6262 66.7961 35.6564C66.7094 33.6435 67.0888 31.7155 68.1518 29.9654C68.8275 28.8532 69.7279 27.9747 70.9722 27.3924ZM74.7395 32.7385C74.6066 32.0508 74.2348 31.6524 73.4856 31.7005C72.7006 31.7509 72.2048 32.2993 72.0815 33.246C72.8511 33.246 73.6236 33.2643 74.3936 33.2281C74.5235 33.222 74.6422 32.9808 74.7395 32.7385Z" fill="white"/>
<path d="M89.3391 15.9358C90.315 16.2863 91.2347 16.6236 92.1632 16.9348C92.7159 17.12 92.9185 17.4067 92.6383 17.9762C92.0993 19.0717 91.6436 20.211 91.0581 21.2803C88.7845 25.4327 83.4067 26.2315 80.3249 22.8693C78.6033 20.9912 78.3181 18.7407 78.8979 16.3531C79.0804 15.6016 79.3964 14.8718 79.731 14.1698C80.2934 12.9901 80.6952 12.8392 81.9573 13.2828C84.0132 14.0055 86.06 14.7539 88.1108 15.4911C88.5025 15.632 88.8947 15.7715 89.3391 15.9358Z" fill="white"/>
<path d="M91.9348 13.027C92.0745 13.26 92.2126 13.4422 92.2661 13.6463C92.3883 14.1123 92.238 14.3127 91.7354 14.1125C91.2006 13.8995 90.659 13.7038 90.1133 13.4979C90.5285 12.6528 91.0301 12.5322 91.9348 13.027Z" fill="white"/>
<path d="M82.7931 10.08C83.3434 9.72233 83.8864 9.68314 84.2995 10.1216C84.5515 10.3891 84.6281 10.8209 84.7835 11.1789C84.707 11.2379 84.6305 11.2969 84.5541 11.356C83.9485 11.1344 83.3359 10.9287 82.7471 10.6693C82.6801 10.6397 82.7468 10.3088 82.7931 10.08Z" fill="white"/>
<path d="M69.068 15.593C69.8059 16.633 69.735 18.1788 68.9484 19.0892C68.1312 20.0352 66.7421 19.9271 66.0045 18.8602C65.3744 17.9488 65.4726 16.4814 66.2186 15.6598C66.9791 14.8222 68.0316 14.7822 69.068 15.593Z" fill="#5A35D8"/>
<path d="M33.8584 37.5788C32.8599 37.7332 32.1222 37.4072 31.6852 36.655C31.1833 35.791 31.2688 34.4696 31.8777 33.6801C32.3716 33.0397 33.1943 32.7726 33.9728 32.9998C34.8059 33.2429 35.3116 33.9059 35.3443 34.7725C35.3894 35.9723 35.1052 36.9989 33.8584 37.5788Z" fill="#4A50D2"/>
<path d="M34.0429 15.0931C35.5164 14.8227 36.5309 15.6291 36.4898 17.053C36.4741 17.595 36.3508 18.1669 36.1322 18.6619C35.8293 19.3476 35.2485 19.7822 34.45 19.7348C33.6208 19.6856 33.0365 19.2377 32.711 18.4755C32.1442 17.1483 32.7038 15.6796 34.0429 15.0931Z" fill="#4A50D2"/>
<path d="M74.7523 32.7934C74.6417 32.9808 74.523 33.222 74.3931 33.2281C73.6232 33.2642 72.8506 33.2459 72.0811 33.2459C72.2044 32.2992 72.7001 31.7509 73.4852 31.7004C74.2344 31.6523 74.6061 32.0507 74.7523 32.7934Z" fill="#5D32D9"/>
<defs>
<linearGradient id="paint0_linear_215_8967" x1="11.0958" y1="12.879" x2="89.6738" y2="26.6745" gradientUnits="userSpaceOnUse">
<stop stop-color="#3D63CD"/>
<stop offset="1" stop-color="#6424DB"/>
</linearGradient>
</defs>
</svg>
